<?xml version="1.0" standalone="no"?>
 <!DOCTYPE svg PUBLIC "-//W3C//DTD SVG 1.1//EN" 
 "http://www.w3.org/Graphics/SVG/1.1/DTD/svg11.dtd"> 
<svg
  xmlns:svg="http://www.w3.org/2000/svg"
  xmlns="http://www.w3.org/2000/svg"
  xmlns:xlink="http://www.w3.org/1999/xlink"
  version="1.1"
  width="297.002200mm" height="210.007200mm" viewBox="0.000000 0.000000 297.002200 210.007200">
<title>SVG Image created as gps_tracker-F_Cu.svg date 2024/02/14 11:21:58 </title>
  <desc>Image generated by PCBNEW </desc>
<g style="fill:#000000; fill-opacity:1.000000;stroke:#000000; stroke-opacity:1.000000;
stroke-linecap:round; stroke-linejoin:round;"
 transform="translate(0 0) scale(1 1)">
</g>
<g style="fill:#000000; fill-opacity:0.0; 
stroke:#000000; stroke-width:0.000000; stroke-opacity:1; 
stroke-linecap:round; stroke-linejoin:round;">
</g>
<g style="fill:#000000; fill-opacity:0.0; 
stroke:#000000; stroke-width:0.200000; stroke-opacity:1; 
stroke-linecap:round; stroke-linejoin:round;">
</g>
<g style="fill:#000000; fill-opacity:1.000000; 
stroke:#000000; stroke-width:0.200000; stroke-opacity:1; 
stroke-linecap:round; stroke-linejoin:round;">
<path style="fill:#000000; fill-opacity:1.000000; 
stroke:#000000; stroke-width:0.200000; stroke-opacity:1; 
stroke-linecap:round; stroke-linejoin:round;fill-rule:evenodd;"
d="M 138.811000,94.361000
138.811000,91.059000
142.113000,91.059000
Z" /> 
</g>
<g style="fill:#000000; fill-opacity:0.0; 
stroke:#000000; stroke-width:0.200000; stroke-opacity:1; 
stroke-linecap:round; stroke-linejoin:round;">
<path d="M180.848000 111.252000
L180.848000 110.744000
" />
</g>
<g style="fill:#000000; fill-opacity:1.000000; 
stroke:#000000; stroke-width:0.200000; stroke-opacity:1; 
stroke-linecap:round; stroke-linejoin:round;">
<path style="fill:#000000; fill-opacity:1.000000; 
stroke:#000000; stroke-width:0.200000; stroke-opacity:1; 
stroke-linecap:round; stroke-linejoin:round;fill-rule:evenodd;"
d="M 133.985000,83.693000
135.636000,83.693000
135.636000,98.044000
132.080000,98.044000
132.080000,83.312000
133.985000,83.312000
Z" /> 
</g>
<g style="fill:#000000; fill-opacity:0.0; 
stroke:#000000; stroke-width:0.200000; stroke-opacity:1; 
stroke-linecap:round; stroke-linejoin:round;">
<path d="M131.445000 75.311000
L131.953000 75.311000
" />
</g>
<g style="fill:#000000; fill-opacity:1.000000; 
stroke:#000000; stroke-width:0.200000; stroke-opacity:1; 
stroke-linecap:round; stroke-linejoin:round;">
<path style="fill:#000000; fill-opacity:1.000000; 
stroke:#000000; stroke-width:0.200000; stroke-opacity:1; 
stroke-linecap:round; stroke-linejoin:round;fill-rule:evenodd;"
d="M 140.716000,91.059000
139.065000,90.932000
140.589000,89.408000
Z" /> 
</g>
<g style="fill:#000000; fill-opacity:0.0; 
stroke:#000000; stroke-width:0.200000; stroke-opacity:1; 
stroke-linecap:round; stroke-linejoin:round;">
<path d="M180.848000 75.311000
L180.848000 76.073000
" />
</g>
<g style="fill:#000000; fill-opacity:1.000000; 
stroke:#000000; stroke-width:0.200000; stroke-opacity:1; 
stroke-linecap:round; stroke-linejoin:round;">
<path style="fill:#000000; fill-opacity:1.000000; 
stroke:#000000; stroke-width:0.200000; stroke-opacity:1; 
stroke-linecap:round; stroke-linejoin:round;fill-rule:evenodd;"
d="M 178.435000,99.060000
177.292000,98.044000
179.451000,98.044000
Z" /> 
</g>
<g style="fill:#000000; fill-opacity:0.0; 
stroke:#000000; stroke-width:0.200000; stroke-opacity:1; 
stroke-linecap:round; stroke-linejoin:round;">
<path d="M131.445000 111.252000
L131.953000 111.252000
" />
<path d="M180.340000 111.252000
L180.848000 111.252000
" />
<path d="M180.086000 75.311000
L180.848000 75.311000
" />
<path d="M131.445000 75.946000
L131.445000 75.311000
" />
<path d="M131.445000 110.617000
L131.445000 111.252000
" />
</g>
<g style="fill:#000000; fill-opacity:1.000000; 
stroke:#000000; stroke-width:0.200000; stroke-opacity:1; 
stroke-linecap:round; stroke-linejoin:round;">
<path style="fill:#000000; fill-opacity:1.000000; 
stroke:#000000; stroke-width:0.200000; stroke-opacity:1; 
stroke-linecap:round; stroke-linejoin:round;fill-rule:evenodd;"
d="M 139.827000,84.709000
139.827000,88.392000
137.541000,90.678000
137.541000,96.139000
136.525000,96.139000
136.525000,98.044000
135.636000,98.044000
135.255000,83.693000
138.811000,83.693000
Z" /> 
</g>
<g style="fill:#000000; fill-opacity:0.0; 
stroke:#000000; stroke-width:0.200000; stroke-opacity:1; 
stroke-linecap:round; stroke-linejoin:round;">
<path d="M180.848000 75.311000
L180.848000 75.565000
" />
<g >
</g>
<g style="fill:#000000; fill-opacity:0.0; 
stroke:#000000; stroke-width:0.000000; stroke-opacity:1; 
stroke-linecap:round; stroke-linejoin:round;">
</g>
<g style="fill:#000000; fill-opacity:1.000000; 
stroke:#000000; stroke-width:0.000000; stroke-opacity:1; 
stroke-linecap:round; stroke-linejoin:round;">
<path style="fill:#000000; fill-opacity:1.000000; 
stroke:#000000; stroke-width:0.000000; stroke-opacity:1; 
stroke-linecap:round; stroke-linejoin:round;fill-rule:evenodd;"
d="M 147.282000,87.520000
148.682000,87.520000
148.682000,88.220000
147.282000,88.220000
Z" /> 
<path style="fill:#000000; fill-opacity:1.000000; 
stroke:#000000; stroke-width:0.000000; stroke-opacity:1; 
stroke-linecap:round; stroke-linejoin:round;fill-rule:evenodd;"
d="M 147.282000,88.620000
148.682000,88.620000
148.682000,89.320000
147.282000,89.320000
Z" /> 
<path style="fill:#000000; fill-opacity:1.000000; 
stroke:#000000; stroke-width:0.000000; stroke-opacity:1; 
stroke-linecap:round; stroke-linejoin:round;fill-rule:evenodd;"
d="M 147.282000,89.720000
148.682000,89.720000
148.682000,90.420000
147.282000,90.420000
Z" /> 
<path style="fill:#000000; fill-opacity:1.000000; 
stroke:#000000; stroke-width:0.000000; stroke-opacity:1; 
stroke-linecap:round; stroke-linejoin:round;fill-rule:evenodd;"
d="M 147.282000,90.820000
148.682000,90.820000
148.682000,91.520000
147.282000,91.520000
Z" /> 
<path style="fill:#000000; fill-opacity:1.000000; 
stroke:#000000; stroke-width:0.000000; stroke-opacity:1; 
stroke-linecap:round; stroke-linejoin:round;fill-rule:evenodd;"
d="M 147.282000,91.920000
148.682000,91.920000
148.682000,92.620000
147.282000,92.620000
Z" /> 
<path style="fill:#000000; fill-opacity:1.000000; 
stroke:#000000; stroke-width:0.000000; stroke-opacity:1; 
stroke-linecap:round; stroke-linejoin:round;fill-rule:evenodd;"
d="M 147.282000,93.020000
148.682000,93.020000
148.682000,93.720000
147.282000,93.720000
Z" /> 
<path style="fill:#000000; fill-opacity:1.000000; 
stroke:#000000; stroke-width:0.000000; stroke-opacity:1; 
stroke-linecap:round; stroke-linejoin:round;fill-rule:evenodd;"
d="M 147.282000,94.120000
148.682000,94.120000
148.682000,94.820000
147.282000,94.820000
Z" /> 
<path style="fill:#000000; fill-opacity:1.000000; 
stroke:#000000; stroke-width:0.000000; stroke-opacity:1; 
stroke-linecap:round; stroke-linejoin:round;fill-rule:evenodd;"
d="M 147.282000,95.220000
148.682000,95.220000
148.682000,95.920000
147.282000,95.920000
Z" /> 
<path style="fill:#000000; fill-opacity:1.000000; 
stroke:#000000; stroke-width:0.000000; stroke-opacity:1; 
stroke-linecap:round; stroke-linejoin:round;fill-rule:evenodd;"
d="M 147.482000,96.170000
148.682000,96.170000
148.682000,96.870000
147.482000,96.870000
Z" /> 
<path style="fill:#000000; fill-opacity:1.000000; 
stroke:#000000; stroke-width:0.000000; stroke-opacity:1; 
stroke-linecap:round; stroke-linejoin:round;fill-rule:evenodd;"
d="M 137.182000,96.770000
137.982000,96.770000
137.982000,97.970000
137.182000,97.970000
Z" /> 
<path style="fill:#000000; fill-opacity:1.000000; 
stroke:#000000; stroke-width:0.000000; stroke-opacity:1; 
stroke-linecap:round; stroke-linejoin:round;fill-rule:evenodd;"
d="M 132.032000,83.320000
133.932000,83.320000
133.932000,84.820000
132.032000,84.820000
Z" /> 
<path style="fill:#000000; fill-opacity:1.000000; 
stroke:#000000; stroke-width:0.000000; stroke-opacity:1; 
stroke-linecap:round; stroke-linejoin:round;fill-rule:evenodd;"
d="M 132.390579,84.820000
132.532000,84.678579
132.673421,84.820000
132.532000,84.961421
Z" /> 
<path style="fill:#000000; fill-opacity:1.000000; 
stroke:#000000; stroke-width:0.000000; stroke-opacity:1; 
stroke-linecap:round; stroke-linejoin:round;fill-rule:evenodd;"
d="M 132.032000,84.820000
132.532000,84.820000
132.532000,85.320000
132.032000,85.320000
Z" /> 
<path style="fill:#000000; fill-opacity:1.000000; 
stroke:#000000; stroke-width:0.000000; stroke-opacity:1; 
stroke-linecap:round; stroke-linejoin:round;fill-rule:evenodd;"
d="M 147.282000,85.470000
148.682000,85.470000
148.682000,86.470000
147.282000,86.470000
Z" /> 
<path style="fill:#000000; fill-opacity:1.000000; 
stroke:#000000; stroke-width:0.000000; stroke-opacity:1; 
stroke-linecap:round; stroke-linejoin:round;fill-rule:evenodd;"
d="M 143.182000,96.770000
144.382000,96.770000
144.382000,97.970000
143.182000,97.970000
Z" /> 
<path style="fill:#000000; fill-opacity:1.000000; 
stroke:#000000; stroke-width:0.000000; stroke-opacity:1; 
stroke-linecap:round; stroke-linejoin:round;fill-rule:evenodd;"
d="M 132.382000,96.770000
135.582000,96.770000
135.582000,97.970000
132.382000,97.970000
Z" /> 
</g>
<g >
</g>
<g style="fill:#000000; fill-opacity:1.000000; 
stroke:#000000; stroke-width:0.000000; stroke-opacity:1; 
stroke-linecap:round; stroke-linejoin:round;">
<path style="fill:#000000; fill-opacity:1.000000; 
stroke:#000000; stroke-width:0.000000; stroke-opacity:1; 
stroke-linecap:round; stroke-linejoin:round;fill-rule:evenodd;"
d="M 179.009000,101.361000
178.989970,101.456671
178.935777,101.537777
178.854671,101.591970
178.759000,101.611000
177.934000,101.611000
177.838329,101.591970
177.757223,101.537777
177.703030,101.456671
177.684000,101.361000
177.684000,100.061000
177.703030,99.965329
177.757223,99.884223
177.838329,99.830030
177.934000,99.811000
178.759000,99.811000
178.854671,99.830030
178.935777,99.884223
178.989970,99.965329
179.009000,100.061000
Z" /> 
<path style="fill:#000000; fill-opacity:1.000000; 
stroke:#000000; stroke-width:0.000000; stroke-opacity:1; 
stroke-linecap:round; stroke-linejoin:round;fill-rule:evenodd;"
d="M 175.884000,101.361000
175.864970,101.456671
175.810777,101.537777
175.729671,101.591970
175.634000,101.611000
174.809000,101.611000
174.713329,101.591970
174.632223,101.537777
174.578030,101.456671
174.559000,101.361000
174.559000,100.061000
174.578030,99.965329
174.632223,99.884223
174.713329,99.830030
174.809000,99.811000
175.634000,99.811000
175.729671,99.830030
175.810777,99.884223
175.864970,99.965329
175.884000,100.061000
Z" /> 
</g>
<g >
</g>
<g style="fill:#000000; fill-opacity:1.000000; 
stroke:#000000; stroke-width:0.000000; stroke-opacity:1; 
stroke-linecap:round; stroke-linejoin:round;">
<circle cx="173.101000" cy="103.886000" r="1.250000" /> 
</g>
<g style="fill:#000000; fill-opacity:1.000000; 
stroke:#000000; stroke-width:0.021200; stroke-opacity:1; 
stroke-linecap:round; stroke-linejoin:round;">
</g>
<g >
</g>
<g style="fill:#000000; fill-opacity:1.000000; 
stroke:#000000; stroke-width:0.021200; stroke-opacity:1; 
stroke-linecap:round; stroke-linejoin:round;">
</g>
<g style="fill:#000000; fill-opacity:1.000000; 
stroke:#000000; stroke-width:0.000000; stroke-opacity:1; 
stroke-linecap:round; stroke-linejoin:round;">
<circle cx="173.228000" cy="109.220000" r="1.250000" /> 
</g>
<g style="fill:#000000; fill-opacity:1.000000; 
stroke:#000000; stroke-width:0.021200; stroke-opacity:1; 
stroke-linecap:round; stroke-linejoin:round;">
</g>
<g >
</g>
<g style="fill:#000000; fill-opacity:1.000000; 
stroke:#000000; stroke-width:0.021200; stroke-opacity:1; 
stroke-linecap:round; stroke-linejoin:round;">
</g>
<g style="fill:#000000; fill-opacity:1.000000; 
stroke:#000000; stroke-width:0.000000; stroke-opacity:1; 
stroke-linecap:round; stroke-linejoin:round;">
<circle cx="178.943000" cy="79.883000" r="1.250000" /> 
</g>
<g style="fill:#000000; fill-opacity:1.000000; 
stroke:#000000; stroke-width:0.021200; stroke-opacity:1; 
stroke-linecap:round; stroke-linejoin:round;">
</g>
<g >
</g>
<g style="fill:#000000; fill-opacity:1.000000; 
stroke:#000000; stroke-width:0.021200; stroke-opacity:1; 
stroke-linecap:round; stroke-linejoin:round;">
</g>
<g style="fill:#000000; fill-opacity:1.000000; 
stroke:#000000; stroke-width:0.000000; stroke-opacity:1; 
stroke-linecap:round; stroke-linejoin:round;">
<circle cx="178.943000" cy="83.693000" r="1.250000" /> 
</g>
<g style="fill:#000000; fill-opacity:1.000000; 
stroke:#000000; stroke-width:0.021200; stroke-opacity:1; 
stroke-linecap:round; stroke-linejoin:round;">
</g>
<g >
</g>
<g style="fill:#000000; fill-opacity:1.000000; 
stroke:#000000; stroke-width:0.021200; stroke-opacity:1; 
stroke-linecap:round; stroke-linejoin:round;">
</g>
<g style="fill:#000000; fill-opacity:1.000000; 
stroke:#000000; stroke-width:0.000000; stroke-opacity:1; 
stroke-linecap:round; stroke-linejoin:round;">
<circle cx="177.419000" cy="90.424000" r="1.250000" /> 
</g>
<g style="fill:#000000; fill-opacity:1.000000; 
stroke:#000000; stroke-width:0.021200; stroke-opacity:1; 
stroke-linecap:round; stroke-linejoin:round;">
</g>
<g >
</g>
<g style="fill:#000000; fill-opacity:1.000000; 
stroke:#000000; stroke-width:0.021200; stroke-opacity:1; 
stroke-linecap:round; stroke-linejoin:round;">
</g>
<g style="fill:#000000; fill-opacity:1.000000; 
stroke:#000000; stroke-width:0.000000; stroke-opacity:1; 
stroke-linecap:round; stroke-linejoin:round;">
<circle cx="179.133500" cy="87.249000" r="1.250000" /> 
</g>
<g style="fill:#000000; fill-opacity:1.000000; 
stroke:#000000; stroke-width:0.021200; stroke-opacity:1; 
stroke-linecap:round; stroke-linejoin:round;">
</g>
<g >
</g>
<g style="fill:#000000; fill-opacity:1.000000; 
stroke:#000000; stroke-width:0.021200; stroke-opacity:1; 
stroke-linecap:round; stroke-linejoin:round;">
</g>
<g style="fill:#000000; fill-opacity:1.000000; 
stroke:#000000; stroke-width:0.000000; stroke-opacity:1; 
stroke-linecap:round; stroke-linejoin:round;">
<path style="fill:#000000; fill-opacity:1.000000; 
stroke:#000000; stroke-width:0.000000; stroke-opacity:1; 
stroke-linecap:round; stroke-linejoin:round;fill-rule:evenodd;"
d="M 176.027500,95.761500
176.123171,95.780530
176.204277,95.834723
176.258470,95.915829
176.277500,96.011500
176.277500,96.711500
176.258470,96.807171
176.204277,96.888277
176.123171,96.942470
176.027500,96.961500
175.127500,96.961500
175.031829,96.942470
174.950723,96.888277
174.896530,96.807171
174.877500,96.711500
174.877500,96.011500
174.896530,95.915829
174.950723,95.834723
175.031829,95.780530
175.127500,95.761500
Z" /> 
<path style="fill:#000000; fill-opacity:1.000000; 
stroke:#000000; stroke-width:0.000000; stroke-opacity:1; 
stroke-linecap:round; stroke-linejoin:round;fill-rule:evenodd;"
d="M 176.027500,97.761500
176.123171,97.780530
176.204277,97.834723
176.258470,97.915829
176.277500,98.011500
176.277500,98.711500
176.258470,98.807171
176.204277,98.888277
176.123171,98.942470
176.027500,98.961500
175.127500,98.961500
175.031829,98.942470
174.950723,98.888277
174.896530,98.807171
174.877500,98.711500
174.877500,98.011500
174.896530,97.915829
174.950723,97.834723
175.031829,97.780530
175.127500,97.761500
Z" /> 
</g>
<g >
</g>
<g style="fill:#000000; fill-opacity:1.000000; 
stroke:#000000; stroke-width:0.000000; stroke-opacity:1; 
stroke-linecap:round; stroke-linejoin:round;">
<path style="fill:#000000; fill-opacity:1.000000; 
stroke:#000000; stroke-width:0.000000; stroke-opacity:1; 
stroke-linecap:round; stroke-linejoin:round;fill-rule:evenodd;"
d="M 155.286000,85.032000
155.266970,85.127671
155.212777,85.208777
155.131671,85.262970
155.036000,85.282000
154.336000,85.282000
154.240329,85.262970
154.159223,85.208777
154.105030,85.127671
154.086000,85.032000
154.086000,84.132000
154.105030,84.036329
154.159223,83.955223
154.240329,83.901030
154.336000,83.882000
155.036000,83.882000
155.131671,83.901030
155.212777,83.955223
155.266970,84.036329
155.286000,84.132000
Z" /> 
<path style="fill:#000000; fill-opacity:1.000000; 
stroke:#000000; stroke-width:0.000000; stroke-opacity:1; 
stroke-linecap:round; stroke-linejoin:round;fill-rule:evenodd;"
d="M 153.286000,85.032000
153.266970,85.127671
153.212777,85.208777
153.131671,85.262970
153.036000,85.282000
152.336000,85.282000
152.240329,85.262970
152.159223,85.208777
152.105030,85.127671
152.086000,85.032000
152.086000,84.132000
152.105030,84.036329
152.159223,83.955223
152.240329,83.901030
152.336000,83.882000
153.036000,83.882000
153.131671,83.901030
153.212777,83.955223
153.266970,84.036329
153.286000,84.132000
Z" /> 
</g>
<g >
</g>
<g style="fill:#000000; fill-opacity:1.000000; 
stroke:#000000; stroke-width:0.000000; stroke-opacity:1; 
stroke-linecap:round; stroke-linejoin:round;">
<path style="fill:#000000; fill-opacity:1.000000; 
stroke:#000000; stroke-width:0.000000; stroke-opacity:1; 
stroke-linecap:round; stroke-linejoin:round;fill-rule:evenodd;"
d="M 155.254000,87.572000
155.234970,87.667671
155.180777,87.748777
155.099671,87.802970
155.004000,87.822000
154.304000,87.822000
154.208329,87.802970
154.127223,87.748777
154.073030,87.667671
154.054000,87.572000
154.054000,86.672000
154.073030,86.576329
154.127223,86.495223
154.208329,86.441030
154.304000,86.422000
155.004000,86.422000
155.099671,86.441030
155.180777,86.495223
155.234970,86.576329
155.254000,86.672000
Z" /> 
<path style="fill:#000000; fill-opacity:1.000000; 
stroke:#000000; stroke-width:0.000000; stroke-opacity:1; 
stroke-linecap:round; stroke-linejoin:round;fill-rule:evenodd;"
d="M 153.254000,87.572000
153.234970,87.667671
153.180777,87.748777
153.099671,87.802970
153.004000,87.822000
152.304000,87.822000
152.208329,87.802970
152.127223,87.748777
152.073030,87.667671
152.054000,87.572000
152.054000,86.672000
152.073030,86.576329
152.127223,86.495223
152.208329,86.441030
152.304000,86.422000
153.004000,86.422000
153.099671,86.441030
153.180777,86.495223
153.234970,86.576329
153.254000,86.672000
Z" /> 
</g>
<g >
</g>
<g style="fill:#000000; fill-opacity:1.000000; 
stroke:#000000; stroke-width:0.000000; stroke-opacity:1; 
stroke-linecap:round; stroke-linejoin:round;">
<path style="fill:#000000; fill-opacity:1.000000; 
stroke:#000000; stroke-width:0.000000; stroke-opacity:1; 
stroke-linecap:round; stroke-linejoin:round;fill-rule:evenodd;"
d="M 178.186500,95.761500
178.282171,95.780530
178.363277,95.834723
178.417470,95.915829
178.436500,96.011500
178.436500,96.711500
178.417470,96.807171
178.363277,96.888277
178.282171,96.942470
178.186500,96.961500
177.286500,96.961500
177.190829,96.942470
177.109723,96.888277
177.055530,96.807171
177.036500,96.711500
177.036500,96.011500
177.055530,95.915829
177.109723,95.834723
177.190829,95.780530
177.286500,95.761500
Z" /> 
<path style="fill:#000000; fill-opacity:1.000000; 
stroke:#000000; stroke-width:0.000000; stroke-opacity:1; 
stroke-linecap:round; stroke-linejoin:round;fill-rule:evenodd;"
d="M 178.186500,97.761500
178.282171,97.780530
178.363277,97.834723
178.417470,97.915829
178.436500,98.011500
178.436500,98.711500
178.417470,98.807171
178.363277,98.888277
178.282171,98.942470
178.186500,98.961500
177.286500,98.961500
177.190829,98.942470
177.109723,98.888277
177.055530,98.807171
177.036500,98.711500
177.036500,98.011500
177.055530,97.915829
177.109723,97.834723
177.190829,97.780530
177.286500,97.761500
Z" /> 
</g>
<g >
</g>
<g style="fill:#000000; fill-opacity:1.000000; 
stroke:#000000; stroke-width:0.000000; stroke-opacity:1; 
stroke-linecap:round; stroke-linejoin:round;">
<path style="fill:#000000; fill-opacity:1.000000; 
stroke:#000000; stroke-width:0.000000; stroke-opacity:1; 
stroke-linecap:round; stroke-linejoin:round;fill-rule:evenodd;"
d="M 175.009500,92.641000
175.028530,92.545329
175.082723,92.464223
175.163829,92.410030
175.259500,92.391000
175.959500,92.391000
176.055171,92.410030
176.136277,92.464223
176.190470,92.545329
176.209500,92.641000
176.209500,93.541000
176.190470,93.636671
176.136277,93.717777
176.055171,93.771970
175.959500,93.791000
175.259500,93.791000
175.163829,93.771970
175.082723,93.717777
175.028530,93.636671
175.009500,93.541000
Z" /> 
<path style="fill:#000000; fill-opacity:1.000000; 
stroke:#000000; stroke-width:0.000000; stroke-opacity:1; 
stroke-linecap:round; stroke-linejoin:round;fill-rule:evenodd;"
d="M 177.009500,92.641000
177.028530,92.545329
177.082723,92.464223
177.163829,92.410030
177.259500,92.391000
177.959500,92.391000
178.055171,92.410030
178.136277,92.464223
178.190470,92.545329
178.209500,92.641000
178.209500,93.541000
178.190470,93.636671
178.136277,93.717777
178.055171,93.771970
177.959500,93.791000
177.259500,93.791000
177.163829,93.771970
177.082723,93.717777
177.028530,93.636671
177.009500,93.541000
Z" /> 
</g>
<g >
</g>
<g style="fill:#000000; fill-opacity:1.000000; 
stroke:#000000; stroke-width:0.000000; stroke-opacity:1; 
stroke-linecap:round; stroke-linejoin:round;">
<path style="fill:#000000; fill-opacity:1.000000; 
stroke:#000000; stroke-width:0.000000; stroke-opacity:1; 
stroke-linecap:round; stroke-linejoin:round;fill-rule:evenodd;"
d="M 162.474000,105.003000
162.474000,103.503000
164.474000,103.503000
164.474000,105.003000
Z" /> 
<path style="fill:#000000; fill-opacity:1.000000; 
stroke:#000000; stroke-width:0.000000; stroke-opacity:1; 
stroke-linecap:round; stroke-linejoin:round;fill-rule:evenodd;"
d="M 162.474000,107.303000
162.474000,105.803000
164.474000,105.803000
164.474000,107.303000
Z" /> 
<path style="fill:#000000; fill-opacity:1.000000; 
stroke:#000000; stroke-width:0.000000; stroke-opacity:1; 
stroke-linecap:round; stroke-linejoin:round;fill-rule:evenodd;"
d="M 168.774000,108.453000
168.774000,104.653000
170.774000,104.653000
170.774000,108.453000
Z" /> 
<path style="fill:#000000; fill-opacity:1.000000; 
stroke:#000000; stroke-width:0.000000; stroke-opacity:1; 
stroke-linecap:round; stroke-linejoin:round;fill-rule:evenodd;"
d="M 162.474000,109.603000
162.474000,108.103000
164.474000,108.103000
164.474000,109.603000
Z" /> 
</g>
<g >
</g>
<g style="fill:#000000; fill-opacity:1.000000; 
stroke:#000000; stroke-width:0.000000; stroke-opacity:1; 
stroke-linecap:round; stroke-linejoin:round;">
<path style="fill:#000000; fill-opacity:1.000000; 
stroke:#000000; stroke-width:0.000000; stroke-opacity:1; 
stroke-linecap:round; stroke-linejoin:round;fill-rule:evenodd;"
d="M 156.314500,84.699500
156.314500,83.699500
158.814500,83.699500
158.814500,84.699500
Z" /> 
<path style="fill:#000000; fill-opacity:1.000000; 
stroke:#000000; stroke-width:0.000000; stroke-opacity:1; 
stroke-linecap:round; stroke-linejoin:round;fill-rule:evenodd;"
d="M 156.314500,86.699500
156.314500,85.699500
158.814500,85.699500
158.814500,86.699500
Z" /> 
<path style="fill:#000000; fill-opacity:1.000000; 
stroke:#000000; stroke-width:0.000000; stroke-opacity:1; 
stroke-linecap:round; stroke-linejoin:round;fill-rule:evenodd;"
d="M 156.314500,88.699500
156.314500,87.699500
158.814500,87.699500
158.814500,88.699500
Z" /> 
<path style="fill:#000000; fill-opacity:1.000000; 
stroke:#000000; stroke-width:0.000000; stroke-opacity:1; 
stroke-linecap:round; stroke-linejoin:round;fill-rule:evenodd;"
d="M 156.314500,90.699500
156.314500,89.699500
158.814500,89.699500
158.814500,90.699500
Z" /> 
<path style="fill:#000000; fill-opacity:1.000000; 
stroke:#000000; stroke-width:0.000000; stroke-opacity:1; 
stroke-linecap:round; stroke-linejoin:round;fill-rule:evenodd;"
d="M 156.314500,92.699500
156.314500,91.699500
158.814500,91.699500
158.814500,92.699500
Z" /> 
<path style="fill:#000000; fill-opacity:1.000000; 
stroke:#000000; stroke-width:0.000000; stroke-opacity:1; 
stroke-linecap:round; stroke-linejoin:round;fill-rule:evenodd;"
d="M 156.314500,94.699500
156.314500,93.699500
158.814500,93.699500
158.814500,94.699500
Z" /> 
<path style="fill:#000000; fill-opacity:1.000000; 
stroke:#000000; stroke-width:0.000000; stroke-opacity:1; 
stroke-linecap:round; stroke-linejoin:round;fill-rule:evenodd;"
d="M 156.314500,96.699500
156.314500,95.699500
158.814500,95.699500
158.814500,96.699500
Z" /> 
<path style="fill:#000000; fill-opacity:1.000000; 
stroke:#000000; stroke-width:0.000000; stroke-opacity:1; 
stroke-linecap:round; stroke-linejoin:round;fill-rule:evenodd;"
d="M 156.314500,98.699500
156.314500,97.699500
158.814500,97.699500
158.814500,98.699500
Z" /> 
<path style="fill:#000000; fill-opacity:1.000000; 
stroke:#000000; stroke-width:0.000000; stroke-opacity:1; 
stroke-linecap:round; stroke-linejoin:round;fill-rule:evenodd;"
d="M 159.664500,100.599500
159.664500,98.799500
160.664500,98.799500
160.664500,100.599500
Z" /> 
<path style="fill:#000000; fill-opacity:1.000000; 
stroke:#000000; stroke-width:0.000000; stroke-opacity:1; 
stroke-linecap:round; stroke-linejoin:round;fill-rule:evenodd;"
d="M 161.664500,100.599500
161.664500,98.799500
162.664500,98.799500
162.664500,100.599500
Z" /> 
<path style="fill:#000000; fill-opacity:1.000000; 
stroke:#000000; stroke-width:0.000000; stroke-opacity:1; 
stroke-linecap:round; stroke-linejoin:round;fill-rule:evenodd;"
d="M 163.664500,100.599500
163.664500,98.799500
164.664500,98.799500
164.664500,100.599500
Z" /> 
<path style="fill:#000000; fill-opacity:1.000000; 
stroke:#000000; stroke-width:0.000000; stroke-opacity:1; 
stroke-linecap:round; stroke-linejoin:round;fill-rule:evenodd;"
d="M 165.664500,100.599500
165.664500,98.799500
166.664500,98.799500
166.664500,100.599500
Z" /> 
<path style="fill:#000000; fill-opacity:1.000000; 
stroke:#000000; stroke-width:0.000000; stroke-opacity:1; 
stroke-linecap:round; stroke-linejoin:round;fill-rule:evenodd;"
d="M 167.664500,100.599500
167.664500,98.799500
168.664500,98.799500
168.664500,100.599500
Z" /> 
<path style="fill:#000000; fill-opacity:1.000000; 
stroke:#000000; stroke-width:0.000000; stroke-opacity:1; 
stroke-linecap:round; stroke-linejoin:round;fill-rule:evenodd;"
d="M 169.664500,100.599500
169.664500,98.799500
170.664500,98.799500
170.664500,100.599500
Z" /> 
<path style="fill:#000000; fill-opacity:1.000000; 
stroke:#000000; stroke-width:0.000000; stroke-opacity:1; 
stroke-linecap:round; stroke-linejoin:round;fill-rule:evenodd;"
d="M 171.514500,98.699500
171.514500,97.699500
174.014500,97.699500
174.014500,98.699500
Z" /> 
<path style="fill:#000000; fill-opacity:1.000000; 
stroke:#000000; stroke-width:0.000000; stroke-opacity:1; 
stroke-linecap:round; stroke-linejoin:round;fill-rule:evenodd;"
d="M 171.514500,96.699500
171.514500,95.699500
174.014500,95.699500
174.014500,96.699500
Z" /> 
<path style="fill:#000000; fill-opacity:1.000000; 
stroke:#000000; stroke-width:0.000000; stroke-opacity:1; 
stroke-linecap:round; stroke-linejoin:round;fill-rule:evenodd;"
d="M 171.514500,94.699500
171.514500,93.699500
174.014500,93.699500
174.014500,94.699500
Z" /> 
<path style="fill:#000000; fill-opacity:1.000000; 
stroke:#000000; stroke-width:0.000000; stroke-opacity:1; 
stroke-linecap:round; stroke-linejoin:round;fill-rule:evenodd;"
d="M 171.514500,92.699500
171.514500,91.699500
174.014500,91.699500
174.014500,92.699500
Z" /> 
<path style="fill:#000000; fill-opacity:1.000000; 
stroke:#000000; stroke-width:0.000000; stroke-opacity:1; 
stroke-linecap:round; stroke-linejoin:round;fill-rule:evenodd;"
d="M 171.514500,90.699500
171.514500,89.699500
174.014500,89.699500
174.014500,90.699500
Z" /> 
<path style="fill:#000000; fill-opacity:1.000000; 
stroke:#000000; stroke-width:0.000000; stroke-opacity:1; 
stroke-linecap:round; stroke-linejoin:round;fill-rule:evenodd;"
d="M 171.514500,88.699500
171.514500,87.699500
174.014500,87.699500
174.014500,88.699500
Z" /> 
<path style="fill:#000000; fill-opacity:1.000000; 
stroke:#000000; stroke-width:0.000000; stroke-opacity:1; 
stroke-linecap:round; stroke-linejoin:round;fill-rule:evenodd;"
d="M 171.514500,86.699500
171.514500,85.699500
174.014500,85.699500
174.014500,86.699500
Z" /> 
<path style="fill:#000000; fill-opacity:1.000000; 
stroke:#000000; stroke-width:0.000000; stroke-opacity:1; 
stroke-linecap:round; stroke-linejoin:round;fill-rule:evenodd;"
d="M 171.514500,84.699500
171.514500,83.699500
174.014500,83.699500
174.014500,84.699500
Z" /> 
</g>
<g >
</g>
<g style="fill:#000000; fill-opacity:1.000000; 
stroke:#000000; stroke-width:0.000000; stroke-opacity:1; 
stroke-linecap:round; stroke-linejoin:round;">
<path style="fill:#000000; fill-opacity:1.000000; 
stroke:#000000; stroke-width:0.000000; stroke-opacity:1; 
stroke-linecap:round; stroke-linejoin:round;fill-rule:evenodd;"
d="M 140.696500,103.162000
140.696500,102.552000
142.606500,102.552000
142.606500,103.162000
Z" /> 
<path style="fill:#000000; fill-opacity:1.000000; 
stroke:#000000; stroke-width:0.000000; stroke-opacity:1; 
stroke-linecap:round; stroke-linejoin:round;fill-rule:evenodd;"
d="M 140.696500,104.432000
140.696500,103.822000
142.606500,103.822000
142.606500,104.432000
Z" /> 
<path style="fill:#000000; fill-opacity:1.000000; 
stroke:#000000; stroke-width:0.000000; stroke-opacity:1; 
stroke-linecap:round; stroke-linejoin:round;fill-rule:evenodd;"
d="M 140.696500,105.702000
140.696500,105.092000
142.606500,105.092000
142.606500,105.702000
Z" /> 
<path style="fill:#000000; fill-opacity:1.000000; 
stroke:#000000; stroke-width:0.000000; stroke-opacity:1; 
stroke-linecap:round; stroke-linejoin:round;fill-rule:evenodd;"
d="M 140.696500,106.972000
140.696500,106.362000
142.606500,106.362000
142.606500,106.972000
Z" /> 
<path style="fill:#000000; fill-opacity:1.000000; 
stroke:#000000; stroke-width:0.000000; stroke-opacity:1; 
stroke-linecap:round; stroke-linejoin:round;fill-rule:evenodd;"
d="M 146.256500,106.972000
146.256500,106.362000
148.166500,106.362000
148.166500,106.972000
Z" /> 
<path style="fill:#000000; fill-opacity:1.000000; 
stroke:#000000; stroke-width:0.000000; stroke-opacity:1; 
stroke-linecap:round; stroke-linejoin:round;fill-rule:evenodd;"
d="M 146.256500,105.702000
146.256500,105.092000
148.166500,105.092000
148.166500,105.702000
Z" /> 
<path style="fill:#000000; fill-opacity:1.000000; 
stroke:#000000; stroke-width:0.000000; stroke-opacity:1; 
stroke-linecap:round; stroke-linejoin:round;fill-rule:evenodd;"
d="M 146.256500,104.432000
146.256500,103.822000
148.166500,103.822000
148.166500,104.432000
Z" /> 
<path style="fill:#000000; fill-opacity:1.000000; 
stroke:#000000; stroke-width:0.000000; stroke-opacity:1; 
stroke-linecap:round; stroke-linejoin:round;fill-rule:evenodd;"
d="M 146.256500,103.162000
146.256500,102.552000
148.166500,102.552000
148.166500,103.162000
Z" /> 
<path style="fill:#000000; fill-opacity:1.000000; 
stroke:#000000; stroke-width:0.000000; stroke-opacity:1; 
stroke-linecap:round; stroke-linejoin:round;fill-rule:evenodd;"
d="M 143.226500,104.762000
143.226500,103.212000
144.431500,103.212000
144.431500,104.762000
Z" /> 
<path style="fill:#000000; fill-opacity:1.000000; 
stroke:#000000; stroke-width:0.000000; stroke-opacity:1; 
stroke-linecap:round; stroke-linejoin:round;fill-rule:evenodd;"
d="M 143.226500,106.312000
143.226500,104.762000
144.431500,104.762000
144.431500,106.312000
Z" /> 
<path style="fill:#000000; fill-opacity:1.000000; 
stroke:#000000; stroke-width:0.000000; stroke-opacity:1; 
stroke-linecap:round; stroke-linejoin:round;fill-rule:evenodd;"
d="M 144.431500,104.762000
144.431500,103.212000
145.636500,103.212000
145.636500,104.762000
Z" /> 
<path style="fill:#000000; fill-opacity:1.000000; 
stroke:#000000; stroke-width:0.000000; stroke-opacity:1; 
stroke-linecap:round; stroke-linejoin:round;fill-rule:evenodd;"
d="M 144.431500,106.312000
144.431500,104.762000
145.636500,104.762000
145.636500,106.312000
Z" /> 
</g>
<g >
</g>
<g style="fill:#000000; fill-opacity:1.000000; 
stroke:#000000; stroke-width:0.000000; stroke-opacity:1; 
stroke-linecap:round; stroke-linejoin:round;">
<circle cx="154.305000" cy="81.788000" r="1.250000" /> 
</g>
<g style="fill:#000000; fill-opacity:1.000000; 
stroke:#000000; stroke-width:0.021200; stroke-opacity:1; 
stroke-linecap:round; stroke-linejoin:round;">
</g>
<g >
</g>
<g style="fill:#000000; fill-opacity:1.000000; 
stroke:#000000; stroke-width:0.021200; stroke-opacity:1; 
stroke-linecap:round; stroke-linejoin:round;">
</g>
<g style="fill:#000000; fill-opacity:1.000000; 
stroke:#000000; stroke-width:0.000000; stroke-opacity:1; 
stroke-linecap:round; stroke-linejoin:round;">
<path style="fill:#000000; fill-opacity:1.000000; 
stroke:#000000; stroke-width:0.000000; stroke-opacity:1; 
stroke-linecap:round; stroke-linejoin:round;fill-rule:evenodd;"
d="M 155.286000,99.256000
155.266970,99.351671
155.212777,99.432777
155.131671,99.486970
155.036000,99.506000
154.336000,99.506000
154.240329,99.486970
154.159223,99.432777
154.105030,99.351671
154.086000,99.256000
154.086000,98.356000
154.105030,98.260329
154.159223,98.179223
154.240329,98.125030
154.336000,98.106000
155.036000,98.106000
155.131671,98.125030
155.212777,98.179223
155.266970,98.260329
155.286000,98.356000
Z" /> 
<path style="fill:#000000; fill-opacity:1.000000; 
stroke:#000000; stroke-width:0.000000; stroke-opacity:1; 
stroke-linecap:round; stroke-linejoin:round;fill-rule:evenodd;"
d="M 153.286000,99.256000
153.266970,99.351671
153.212777,99.432777
153.131671,99.486970
153.036000,99.506000
152.336000,99.506000
152.240329,99.486970
152.159223,99.432777
152.105030,99.351671
152.086000,99.256000
152.086000,98.356000
152.105030,98.260329
152.159223,98.179223
152.240329,98.125030
152.336000,98.106000
153.036000,98.106000
153.131671,98.125030
153.212777,98.179223
153.266970,98.260329
153.286000,98.356000
Z" /> 
</g>
<g >
</g>
<g style="fill:#000000; fill-opacity:1.000000; 
stroke:#000000; stroke-width:0.000000; stroke-opacity:1; 
stroke-linecap:round; stroke-linejoin:round;">
<path style="fill:#000000; fill-opacity:1.000000; 
stroke:#000000; stroke-width:0.000000; stroke-opacity:1; 
stroke-linecap:round; stroke-linejoin:round;fill-rule:evenodd;"
d="M 143.602000,108.192000
143.621030,108.096329
143.675223,108.015223
143.756329,107.961030
143.852000,107.942000
144.552000,107.942000
144.647671,107.961030
144.728777,108.015223
144.782970,108.096329
144.802000,108.192000
144.802000,109.092000
144.782970,109.187671
144.728777,109.268777
144.647671,109.322970
144.552000,109.342000
143.852000,109.342000
143.756329,109.322970
143.675223,109.268777
143.621030,109.187671
143.602000,109.092000
Z" /> 
<path style="fill:#000000; fill-opacity:1.000000; 
stroke:#000000; stroke-width:0.000000; stroke-opacity:1; 
stroke-linecap:round; stroke-linejoin:round;fill-rule:evenodd;"
d="M 145.602000,108.192000
145.621030,108.096329
145.675223,108.015223
145.756329,107.961030
145.852000,107.942000
146.552000,107.942000
146.647671,107.961030
146.728777,108.015223
146.782970,108.096329
146.802000,108.192000
146.802000,109.092000
146.782970,109.187671
146.728777,109.268777
146.647671,109.322970
146.552000,109.342000
145.852000,109.342000
145.756329,109.322970
145.675223,109.268777
145.621030,109.187671
145.602000,109.092000
Z" /> 
</g>
<g >
</g>
<g style="fill:#000000; fill-opacity:1.000000; 
stroke:#000000; stroke-width:0.000000; stroke-opacity:1; 
stroke-linecap:round; stroke-linejoin:round;">
<circle cx="176.022000" cy="77.597000" r="1.250000" /> 
</g>
<g style="fill:#000000; fill-opacity:1.000000; 
stroke:#000000; stroke-width:0.021200; stroke-opacity:1; 
stroke-linecap:round; stroke-linejoin:round;">
</g>
<g >
</g>
<g style="fill:#000000; fill-opacity:1.000000; 
stroke:#000000; stroke-width:0.021200; stroke-opacity:1; 
stroke-linecap:round; stroke-linejoin:round;">
</g>
<g style="fill:#000000; fill-opacity:1.000000; 
stroke:#000000; stroke-width:0.000000; stroke-opacity:1; 
stroke-linecap:round; stroke-linejoin:round;">
<circle cx="133.477000" cy="100.711000" r="1.250000" /> 
</g>
<g style="fill:#000000; fill-opacity:1.000000; 
stroke:#000000; stroke-width:0.021200; stroke-opacity:1; 
stroke-linecap:round; stroke-linejoin:round;">
</g>
<g >
</g>
<g style="fill:#000000; fill-opacity:1.000000; 
stroke:#000000; stroke-width:0.021200; stroke-opacity:1; 
stroke-linecap:round; stroke-linejoin:round;">
</g>
<g style="fill:#000000; fill-opacity:1.000000; 
stroke:#000000; stroke-width:0.000000; stroke-opacity:1; 
stroke-linecap:round; stroke-linejoin:round;">
<path style="fill:#000000; fill-opacity:1.000000; 
stroke:#000000; stroke-width:0.000000; stroke-opacity:1; 
stroke-linecap:round; stroke-linejoin:round;fill-rule:evenodd;"
d="M 157.846000,108.016000
157.750329,107.996970
157.669223,107.942777
157.615030,107.861671
157.596000,107.766000
157.596000,106.941000
157.615030,106.845329
157.669223,106.764223
157.750329,106.710030
157.846000,106.691000
159.146000,106.691000
159.241671,106.710030
159.322777,106.764223
159.376970,106.845329
159.396000,106.941000
159.396000,107.766000
159.376970,107.861671
159.322777,107.942777
159.241671,107.996970
159.146000,108.016000
Z" /> 
<path style="fill:#000000; fill-opacity:1.000000; 
stroke:#000000; stroke-width:0.000000; stroke-opacity:1; 
stroke-linecap:round; stroke-linejoin:round;fill-rule:evenodd;"
d="M 157.846000,104.891000
157.750329,104.871970
157.669223,104.817777
157.615030,104.736671
157.596000,104.641000
157.596000,103.816000
157.615030,103.720329
157.669223,103.639223
157.750329,103.585030
157.846000,103.566000
159.146000,103.566000
159.241671,103.585030
159.322777,103.639223
159.376970,103.720329
159.396000,103.816000
159.396000,104.641000
159.376970,104.736671
159.322777,104.817777
159.241671,104.871970
159.146000,104.891000
Z" /> 
</g>
<g >
</g>
<g style="fill:#000000; fill-opacity:1.000000; 
stroke:#000000; stroke-width:0.000000; stroke-opacity:1; 
stroke-linecap:round; stroke-linejoin:round;">
<path style="fill:#000000; fill-opacity:1.000000; 
stroke:#000000; stroke-width:0.000000; stroke-opacity:1; 
stroke-linecap:round; stroke-linejoin:round;fill-rule:evenodd;"
d="M 154.000000,109.416000
153.980970,109.511671
153.926777,109.592777
153.845671,109.646970
153.750000,109.666000
153.050000,109.666000
152.954329,109.646970
152.873223,109.592777
152.819030,109.511671
152.800000,109.416000
152.800000,108.516000
152.819030,108.420329
152.873223,108.339223
152.954329,108.285030
153.050000,108.266000
153.750000,108.266000
153.845671,108.285030
153.926777,108.339223
153.980970,108.420329
154.000000,108.516000
Z" /> 
<path style="fill:#000000; fill-opacity:1.000000; 
stroke:#000000; stroke-width:0.000000; stroke-opacity:1; 
stroke-linecap:round; stroke-linejoin:round;fill-rule:evenodd;"
d="M 152.000000,109.416000
151.980970,109.511671
151.926777,109.592777
151.845671,109.646970
151.750000,109.666000
151.050000,109.666000
150.954329,109.646970
150.873223,109.592777
150.819030,109.511671
150.800000,109.416000
150.800000,108.516000
150.819030,108.420329
150.873223,108.339223
150.954329,108.285030
151.050000,108.266000
151.750000,108.266000
151.845671,108.285030
151.926777,108.339223
151.980970,108.420329
152.000000,108.516000
Z" /> 
</g>
<g >
</g>
<g style="fill:#000000; fill-opacity:1.000000; 
stroke:#000000; stroke-width:0.000000; stroke-opacity:1; 
stroke-linecap:round; stroke-linejoin:round;">
<path style="fill:#000000; fill-opacity:1.000000; 
stroke:#000000; stroke-width:0.000000; stroke-opacity:1; 
stroke-linecap:round; stroke-linejoin:round;fill-rule:evenodd;"
d="M 149.744000,107.464000
149.744000,103.864000
151.244000,103.864000
151.244000,107.464000
Z" /> 
<path style="fill:#000000; fill-opacity:1.000000; 
stroke:#000000; stroke-width:0.000000; stroke-opacity:1; 
stroke-linecap:round; stroke-linejoin:round;fill-rule:evenodd;"
d="M 152.794000,107.464000
152.794000,103.864000
154.294000,103.864000
154.294000,107.464000
Z" /> 
</g>
<g >
</g>
<g style="fill:#000000; fill-opacity:1.000000; 
stroke:#000000; stroke-width:0.000000; stroke-opacity:1; 
stroke-linecap:round; stroke-linejoin:round;">
<path style="fill:#000000; fill-opacity:1.000000; 
stroke:#000000; stroke-width:0.000000; stroke-opacity:1; 
stroke-linecap:round; stroke-linejoin:round;fill-rule:evenodd;"
d="M 135.748000,104.841000
135.652329,104.821970
135.571223,104.767777
135.517030,104.686671
135.498000,104.591000
135.498000,103.766000
135.517030,103.670329
135.571223,103.589223
135.652329,103.535030
135.748000,103.516000
137.048000,103.516000
137.143671,103.535030
137.224777,103.589223
137.278970,103.670329
137.298000,103.766000
137.298000,104.591000
137.278970,104.686671
137.224777,104.767777
137.143671,104.821970
137.048000,104.841000
Z" /> 
<path style="fill:#000000; fill-opacity:1.000000; 
stroke:#000000; stroke-width:0.000000; stroke-opacity:1; 
stroke-linecap:round; stroke-linejoin:round;fill-rule:evenodd;"
d="M 135.748000,101.716000
135.652329,101.696970
135.571223,101.642777
135.517030,101.561671
135.498000,101.466000
135.498000,100.641000
135.517030,100.545329
135.571223,100.464223
135.652329,100.410030
135.748000,100.391000
137.048000,100.391000
137.143671,100.410030
137.224777,100.464223
137.278970,100.545329
137.298000,100.641000
137.298000,101.466000
137.278970,101.561671
137.224777,101.642777
137.143671,101.696970
137.048000,101.716000
Z" /> 
</g>
<g >
</g>
<g style="fill:#000000; fill-opacity:1.000000; 
stroke:#000000; stroke-width:0.000000; stroke-opacity:1; 
stroke-linecap:round; stroke-linejoin:round;">
<path style="fill:#000000; fill-opacity:1.000000; 
stroke:#000000; stroke-width:0.000000; stroke-opacity:1; 
stroke-linecap:round; stroke-linejoin:round;fill-rule:evenodd;"
d="M 138.238000,79.281000
138.238000,80.281000
136.738000,80.281000
136.738000,79.281000
Z" /> 
<path style="fill:#000000; fill-opacity:1.000000; 
stroke:#000000; stroke-width:0.000000; stroke-opacity:1; 
stroke-linecap:round; stroke-linejoin:round;fill-rule:evenodd;"
d="M 138.238000,76.081000
138.238000,77.081000
136.738000,77.081000
136.738000,76.081000
Z" /> 
<path style="fill:#000000; fill-opacity:1.000000; 
stroke:#000000; stroke-width:0.000000; stroke-opacity:1; 
stroke-linecap:round; stroke-linejoin:round;fill-rule:evenodd;"
d="M 133.338000,76.081000
133.338000,77.081000
131.838000,77.081000
131.838000,76.081000
Z" /> 
<path style="fill:#000000; fill-opacity:1.000000; 
stroke:#000000; stroke-width:0.000000; stroke-opacity:1; 
stroke-linecap:round; stroke-linejoin:round;fill-rule:evenodd;"
d="M 133.338000,79.281000
133.338000,80.281000
131.838000,80.281000
131.838000,79.281000
Z" /> 
</g>
<g >
</g>
<g style="fill:#000000; fill-opacity:1.000000; 
stroke:#000000; stroke-width:0.000000; stroke-opacity:1; 
stroke-linecap:round; stroke-linejoin:round;">
<path style="fill:#000000; fill-opacity:1.000000; 
stroke:#000000; stroke-width:0.000000; stroke-opacity:1; 
stroke-linecap:round; stroke-linejoin:round;fill-rule:evenodd;"
d="M 155.254000,96.970000
155.234970,97.065671
155.180777,97.146777
155.099671,97.200970
155.004000,97.220000
154.304000,97.220000
154.208329,97.200970
154.127223,97.146777
154.073030,97.065671
154.054000,96.970000
154.054000,96.070000
154.073030,95.974329
154.127223,95.893223
154.208329,95.839030
154.304000,95.820000
155.004000,95.820000
155.099671,95.839030
155.180777,95.893223
155.234970,95.974329
155.254000,96.070000
Z" /> 
<path style="fill:#000000; fill-opacity:1.000000; 
stroke:#000000; stroke-width:0.000000; stroke-opacity:1; 
stroke-linecap:round; stroke-linejoin:round;fill-rule:evenodd;"
d="M 153.254000,96.970000
153.234970,97.065671
153.180777,97.146777
153.099671,97.200970
153.004000,97.220000
152.304000,97.220000
152.208329,97.200970
152.127223,97.146777
152.073030,97.065671
152.054000,96.970000
152.054000,96.070000
152.073030,95.974329
152.127223,95.893223
152.208329,95.839030
152.304000,95.820000
153.004000,95.820000
153.099671,95.839030
153.180777,95.893223
153.234970,95.974329
153.254000,96.070000
Z" /> 
</g>
<g >
</g>
<g style="fill:#000000; fill-opacity:1.000000; 
stroke:#000000; stroke-width:0.000000; stroke-opacity:1; 
stroke-linecap:round; stroke-linejoin:round;">
<circle cx="133.477000" cy="104.394000" r="1.250000" /> 
</g>
<g style="fill:#000000; fill-opacity:1.000000; 
stroke:#000000; stroke-width:0.021200; stroke-opacity:1; 
stroke-linecap:round; stroke-linejoin:round;">
</g>
<g >
</g>
<g style="fill:#000000; fill-opacity:1.000000; 
stroke:#000000; stroke-width:0.021200; stroke-opacity:1; 
stroke-linecap:round; stroke-linejoin:round;">
</g>
<g style="fill:#000000; fill-opacity:1.000000; 
stroke:#000000; stroke-width:0.000000; stroke-opacity:1; 
stroke-linecap:round; stroke-linejoin:round;">
<path style="fill:#000000; fill-opacity:1.000000; 
stroke:#000000; stroke-width:0.000000; stroke-opacity:1; 
stroke-linecap:round; stroke-linejoin:round;fill-rule:evenodd;"
d="M 155.254000,92.398000
155.234970,92.493671
155.180777,92.574777
155.099671,92.628970
155.004000,92.648000
154.304000,92.648000
154.208329,92.628970
154.127223,92.574777
154.073030,92.493671
154.054000,92.398000
154.054000,91.498000
154.073030,91.402329
154.127223,91.321223
154.208329,91.267030
154.304000,91.248000
155.004000,91.248000
155.099671,91.267030
155.180777,91.321223
155.234970,91.402329
155.254000,91.498000
Z" /> 
<path style="fill:#000000; fill-opacity:1.000000; 
stroke:#000000; stroke-width:0.000000; stroke-opacity:1; 
stroke-linecap:round; stroke-linejoin:round;fill-rule:evenodd;"
d="M 153.254000,92.398000
153.234970,92.493671
153.180777,92.574777
153.099671,92.628970
153.004000,92.648000
152.304000,92.648000
152.208329,92.628970
152.127223,92.574777
152.073030,92.493671
152.054000,92.398000
152.054000,91.498000
152.073030,91.402329
152.127223,91.321223
152.208329,91.267030
152.304000,91.248000
153.004000,91.248000
153.099671,91.267030
153.180777,91.321223
153.234970,91.402329
153.254000,91.498000
Z" /> 
</g>
<g >
</g>
<g style="fill:#000000; fill-opacity:1.000000; 
stroke:#000000; stroke-width:0.000000; stroke-opacity:1; 
stroke-linecap:round; stroke-linejoin:round;">
<path style="fill:#000000; fill-opacity:1.000000; 
stroke:#000000; stroke-width:0.000000; stroke-opacity:1; 
stroke-linecap:round; stroke-linejoin:round;fill-rule:evenodd;"
d="M 155.254000,90.112000
155.234970,90.207671
155.180777,90.288777
155.099671,90.342970
155.004000,90.362000
154.304000,90.362000
154.208329,90.342970
154.127223,90.288777
154.073030,90.207671
154.054000,90.112000
154.054000,89.212000
154.073030,89.116329
154.127223,89.035223
154.208329,88.981030
154.304000,88.962000
155.004000,88.962000
155.099671,88.981030
155.180777,89.035223
155.234970,89.116329
155.254000,89.212000
Z" /> 
<path style="fill:#000000; fill-opacity:1.000000; 
stroke:#000000; stroke-width:0.000000; stroke-opacity:1; 
stroke-linecap:round; stroke-linejoin:round;fill-rule:evenodd;"
d="M 153.254000,90.112000
153.234970,90.207671
153.180777,90.288777
153.099671,90.342970
153.004000,90.362000
152.304000,90.362000
152.208329,90.342970
152.127223,90.288777
152.073030,90.207671
152.054000,90.112000
152.054000,89.212000
152.073030,89.116329
152.127223,89.035223
152.208329,88.981030
152.304000,88.962000
153.004000,88.962000
153.099671,88.981030
153.180777,89.035223
153.234970,89.116329
153.254000,89.212000
Z" /> 
</g>
<g >
</g>
<g style="fill:#000000; fill-opacity:1.000000; 
stroke:#000000; stroke-width:0.000000; stroke-opacity:1; 
stroke-linecap:round; stroke-linejoin:round;">
<path style="fill:#000000; fill-opacity:1.000000; 
stroke:#000000; stroke-width:0.000000; stroke-opacity:1; 
stroke-linecap:round; stroke-linejoin:round;fill-rule:evenodd;"
d="M 151.072000,83.887000
151.167671,83.906030
151.248777,83.960223
151.302970,84.041329
151.322000,84.137000
151.322000,84.837000
151.302970,84.932671
151.248777,85.013777
151.167671,85.067970
151.072000,85.087000
150.172000,85.087000
150.076329,85.067970
149.995223,85.013777
149.941030,84.932671
149.922000,84.837000
149.922000,84.137000
149.941030,84.041329
149.995223,83.960223
150.076329,83.906030
150.172000,83.887000
Z" /> 
<path style="fill:#000000; fill-opacity:1.000000; 
stroke:#000000; stroke-width:0.000000; stroke-opacity:1; 
stroke-linecap:round; stroke-linejoin:round;fill-rule:evenodd;"
d="M 151.072000,85.887000
151.167671,85.906030
151.248777,85.960223
151.302970,86.041329
151.322000,86.137000
151.322000,86.837000
151.302970,86.932671
151.248777,87.013777
151.167671,87.067970
151.072000,87.087000
150.172000,87.087000
150.076329,87.067970
149.995223,87.013777
149.941030,86.932671
149.922000,86.837000
149.922000,86.137000
149.941030,86.041329
149.995223,85.960223
150.076329,85.906030
150.172000,85.887000
Z" /> 
</g>
<g >
</g>
<g style="fill:#000000; fill-opacity:1.000000; 
stroke:#000000; stroke-width:0.000000; stroke-opacity:1; 
stroke-linecap:round; stroke-linejoin:round;">
<path style="fill:#000000; fill-opacity:1.000000; 
stroke:#000000; stroke-width:0.000000; stroke-opacity:1; 
stroke-linecap:round; stroke-linejoin:round;fill-rule:evenodd;"
d="M 155.433000,108.016000
155.337329,107.996970
155.256223,107.942777
155.202030,107.861671
155.183000,107.766000
155.183000,106.941000
155.202030,106.845329
155.256223,106.764223
155.337329,106.710030
155.433000,106.691000
156.733000,106.691000
156.828671,106.710030
156.909777,106.764223
156.963970,106.845329
156.983000,106.941000
156.983000,107.766000
156.963970,107.861671
156.909777,107.942777
156.828671,107.996970
156.733000,108.016000
Z" /> 
<path style="fill:#000000; fill-opacity:1.000000; 
stroke:#000000; stroke-width:0.000000; stroke-opacity:1; 
stroke-linecap:round; stroke-linejoin:round;fill-rule:evenodd;"
d="M 155.433000,104.891000
155.337329,104.871970
155.256223,104.817777
155.202030,104.736671
155.183000,104.641000
155.183000,103.816000
155.202030,103.720329
155.256223,103.639223
155.337329,103.585030
155.433000,103.566000
156.733000,103.566000
156.828671,103.585030
156.909777,103.639223
156.963970,103.720329
156.983000,103.816000
156.983000,104.641000
156.963970,104.736671
156.909777,104.817777
156.828671,104.871970
156.733000,104.891000
Z" /> 
</g>
<g >
</g>
<g style="fill:#000000; fill-opacity:1.000000; 
stroke:#000000; stroke-width:0.000000; stroke-opacity:1; 
stroke-linecap:round; stroke-linejoin:round;">
<path style="fill:#000000; fill-opacity:1.000000; 
stroke:#000000; stroke-width:0.000000; stroke-opacity:1; 
stroke-linecap:round; stroke-linejoin:round;fill-rule:evenodd;"
d="M 155.254000,94.684000
155.234970,94.779671
155.180777,94.860777
155.099671,94.914970
155.004000,94.934000
154.304000,94.934000
154.208329,94.914970
154.127223,94.860777
154.073030,94.779671
154.054000,94.684000
154.054000,93.784000
154.073030,93.688329
154.127223,93.607223
154.208329,93.553030
154.304000,93.534000
155.004000,93.534000
155.099671,93.553030
155.180777,93.607223
155.234970,93.688329
155.254000,93.784000
Z" /> 
<path style="fill:#000000; fill-opacity:1.000000; 
stroke:#000000; stroke-width:0.000000; stroke-opacity:1; 
stroke-linecap:round; stroke-linejoin:round;fill-rule:evenodd;"
d="M 153.254000,94.684000
153.234970,94.779671
153.180777,94.860777
153.099671,94.914970
153.004000,94.934000
152.304000,94.934000
152.208329,94.914970
152.127223,94.860777
152.073030,94.779671
152.054000,94.684000
152.054000,93.784000
152.073030,93.688329
152.127223,93.607223
152.208329,93.553030
152.304000,93.534000
153.004000,93.534000
153.099671,93.553030
153.180777,93.607223
153.234970,93.688329
153.254000,93.784000
Z" /> 
</g>
<g >
</g>
<g style="fill:#000000; fill-opacity:1.000000; 
stroke:#000000; stroke-width:0.000000; stroke-opacity:1; 
stroke-linecap:round; stroke-linejoin:round;">
<circle cx="150.368000" cy="82.296000" r="0.750000" /> 
</g>
<g style="fill:#000000; fill-opacity:1.000000; 
stroke:#000000; stroke-width:0.021200; stroke-opacity:1; 
stroke-linecap:round; stroke-linejoin:round;">
</g>
<g style="fill:#000000; fill-opacity:1.000000; 
stroke:#000000; stroke-width:0.000000; stroke-opacity:1; 
stroke-linecap:round; stroke-linejoin:round;">
<circle cx="136.906000" cy="108.331000" r="1.500000" /> 
</g>
<g style="fill:#000000; fill-opacity:1.000000; 
stroke:#000000; stroke-width:0.021200; stroke-opacity:1; 
stroke-linecap:round; stroke-linejoin:round;">
</g>
<g style="fill:#000000; fill-opacity:1.000000; 
stroke:#000000; stroke-width:0.000000; stroke-opacity:1; 
stroke-linecap:round; stroke-linejoin:round;">
<circle cx="144.653000" cy="77.978000" r="1.500000" /> 
</g>
<g style="fill:#000000; fill-opacity:1.000000; 
stroke:#000000; stroke-width:0.021200; stroke-opacity:1; 
stroke-linecap:round; stroke-linejoin:round;">
</g>
<g style="fill:#000000; fill-opacity:1.000000; 
stroke:#000000; stroke-width:0.000000; stroke-opacity:1; 
stroke-linecap:round; stroke-linejoin:round;">
<circle cx="178.308000" cy="108.204000" r="1.500000" /> 
</g>
<g style="fill:#000000; fill-opacity:1.000000; 
stroke:#000000; stroke-width:0.021200; stroke-opacity:1; 
stroke-linecap:round; stroke-linejoin:round;">
</g>
<g style="fill:#000000; fill-opacity:1.000000; 
stroke:#000000; stroke-width:0.000000; stroke-opacity:1; 
stroke-linecap:round; stroke-linejoin:round;">
<circle cx="149.225000" cy="98.806000" r="0.750000" /> 
</g>
<g style="fill:#000000; fill-opacity:1.000000; 
stroke:#000000; stroke-width:0.021200; stroke-opacity:1; 
stroke-linecap:round; stroke-linejoin:round;">
</g>
<g style="fill:#000000; fill-opacity:1.000000; 
stroke:#000000; stroke-width:0.000000; stroke-opacity:1; 
stroke-linecap:round; stroke-linejoin:round;">
<circle cx="152.781000" cy="102.362000" r="0.750000" /> 
</g>
<g style="fill:#000000; fill-opacity:1.000000; 
stroke:#000000; stroke-width:0.021200; stroke-opacity:1; 
stroke-linecap:round; stroke-linejoin:round;">
</g>
<g style="fill:#000000; fill-opacity:1.000000; 
stroke:#000000; stroke-width:0.000000; stroke-opacity:1; 
stroke-linecap:round; stroke-linejoin:round;">
<circle cx="161.036000" cy="101.854000" r="0.750000" /> 
</g>
<g style="fill:#000000; fill-opacity:1.000000; 
stroke:#000000; stroke-width:0.021200; stroke-opacity:1; 
stroke-linecap:round; stroke-linejoin:round;">
</g>
<g style="fill:#000000; fill-opacity:1.000000; 
stroke:#000000; stroke-width:0.000000; stroke-opacity:1; 
stroke-linecap:round; stroke-linejoin:round;">
<circle cx="161.036000" cy="106.299000" r="0.750000" /> 
</g>
<g style="fill:#000000; fill-opacity:1.000000; 
stroke:#000000; stroke-width:0.021200; stroke-opacity:1; 
stroke-linecap:round; stroke-linejoin:round;">
</g>
<g style="fill:#000000; fill-opacity:1.000000; 
stroke:#000000; stroke-width:0.000000; stroke-opacity:1; 
stroke-linecap:round; stroke-linejoin:round;">
<circle cx="150.622000" cy="95.123000" r="0.750000" /> 
</g>
<g style="fill:#000000; fill-opacity:1.000000; 
stroke:#000000; stroke-width:0.021200; stroke-opacity:1; 
stroke-linecap:round; stroke-linejoin:round;">
</g>
<g style="fill:#000000; fill-opacity:1.000000; 
stroke:#000000; stroke-width:0.000000; stroke-opacity:1; 
stroke-linecap:round; stroke-linejoin:round;">
<circle cx="150.622000" cy="90.678000" r="0.750000" /> 
</g>
<g style="fill:#000000; fill-opacity:1.000000; 
stroke:#000000; stroke-width:0.021200; stroke-opacity:1; 
stroke-linecap:round; stroke-linejoin:round;">
</g>
<g style="fill:#000000; fill-opacity:1.000000; 
stroke:#000000; stroke-width:0.000000; stroke-opacity:1; 
stroke-linecap:round; stroke-linejoin:round;">
<circle cx="148.012000" cy="108.388000" r="0.750000" /> 
</g>
<g style="fill:#000000; fill-opacity:1.000000; 
stroke:#000000; stroke-width:0.021200; stroke-opacity:1; 
stroke-linecap:round; stroke-linejoin:round;">
</g>
<g style="fill:#000000; fill-opacity:1.000000; 
stroke:#000000; stroke-width:0.000000; stroke-opacity:1; 
stroke-linecap:round; stroke-linejoin:round;">
<circle cx="139.630000" cy="103.562000" r="0.750000" /> 
</g>
<g style="fill:#000000; fill-opacity:1.000000; 
stroke:#000000; stroke-width:0.021200; stroke-opacity:1; 
stroke-linecap:round; stroke-linejoin:round;">
</g>
<g >
</g>
<g style="fill:#000000; fill-opacity:1.000000; 
stroke:#000000; stroke-width:0.021200; stroke-opacity:1; 
stroke-linecap:round; stroke-linejoin:round;">
</g>
<g style="fill:#000000; fill-opacity:1.000000; 
stroke:#000000; stroke-width:1.000000; stroke-opacity:1; 
stroke-linecap:round; stroke-linejoin:round;">
</g>
<g style="fill:#000000; fill-opacity:0.0; 
stroke:#000000; stroke-width:1.000000; stroke-opacity:1; 
stroke-linecap:round; stroke-linejoin:round;">
<path d="M172.764500 98.199500
L171.323000 98.171000
" />
<path d="M142.291000 82.677000
L139.395000 79.781000
" />
<path d="M171.323000 98.171000
L170.193000 97.028000
" />
<path d="M170.193000 97.028000
L165.608000 97.028000
" />
<path d="M165.608000 97.028000
L163.576000 94.996000
" />
<path d="M163.576000 94.996000
L163.576000 82.931000
" />
<path d="M163.576000 82.931000
L158.242000 77.597000
" />
<path d="M158.242000 77.597000
L152.019000 77.597000
" />
<path d="M152.019000 77.597000
L147.066000 82.677000
" />
<path d="M147.066000 82.677000
L142.291000 82.677000
" />
<path d="M139.395000 79.781000
L137.488000 79.781000
" />
<path d="M172.764500 96.199500
L171.383500 96.199500
" />
<path d="M171.383500 96.199500
L170.307000 95.123000
" />
<path d="M170.307000 95.123000
L166.624000 95.123000
" />
<path d="M166.624000 95.123000
L165.608000 94.107000
" />
<path d="M143.256000 81.153000
L138.684000 76.581000
" />
<path d="M165.608000 94.107000
L165.608000 82.296000
" />
<path d="M159.258000 75.946000
L151.130000 75.946000
" />
<path d="M165.608000 82.296000
L159.258000 75.946000
" />
<path d="M151.130000 75.946000
L145.923000 81.153000
" />
<path d="M145.923000 81.153000
L143.256000 81.153000
" />
<path d="M138.684000 76.581000
L137.488000 76.581000
" />
<path d="M153.098500 79.375000
L150.431500 82.042000
" />
<path d="M159.164500 86.199500
L160.274000 85.090000
" />
<path d="M157.564500 86.199500
L159.164500 86.199500
" />
<path d="M160.274000 85.090000
L160.274000 82.550000
" />
<path d="M157.099000 79.375000
L153.289000 79.375000
" />
<path d="M160.274000 82.550000
L157.099000 79.375000
" />
<path d="M141.097000 84.074000
L139.319000 82.296000
" />
<path d="M135.128000 78.232000
L133.477000 76.581000
" />
<path d="M139.319000 82.296000
L136.271000 82.296000
" />
<path d="M136.271000 82.296000
L135.128000 81.153000
" />
<path d="M135.128000 81.153000
L135.128000 78.232000
" />
<path d="M133.477000 76.581000
L132.588000 76.581000
" />
<path d="M172.764500 84.199500
L174.372500 84.199500
" />
<path d="M176.911000 80.772000
L177.800000 79.883000
" />
<path d="M174.372500 84.199500
L176.911000 81.661000
" />
<path d="M177.800000 79.883000
L178.943000 79.883000
" />
<path d="M176.911000 81.661000
L176.911000 80.772000
" />
</g>
<g style="fill:#000000; fill-opacity:0.0; 
stroke:#000000; stroke-width:1.500000; stroke-opacity:1; 
stroke-linecap:round; stroke-linejoin:round;">
<path d="M154.813000 102.362000
L156.083000 103.632000
" />
<path d="M163.474000 104.253000
L165.114000 104.253000
" />
<path d="M163.474000 104.253000
L158.852500 104.253000
" />
</g>
<g style="fill:#000000; fill-opacity:0.0; 
stroke:#000000; stroke-width:0.750000; stroke-opacity:1; 
stroke-linecap:round; stroke-linejoin:round;">
<path d="M148.082000 97.155000
L149.225000 98.298000
" />
</g>
<g style="fill:#000000; fill-opacity:0.0; 
stroke:#000000; stroke-width:1.500000; stroke-opacity:1; 
stroke-linecap:round; stroke-linejoin:round;">
<path d="M152.781000 102.362000
L143.891000 102.362000
" />
<path d="M156.704000 104.253000
L154.813000 102.362000
" />
</g>
<g style="fill:#000000; fill-opacity:0.0; 
stroke:#000000; stroke-width:1.000000; stroke-opacity:1; 
stroke-linecap:round; stroke-linejoin:round;">
<path d="M175.285000 100.647500
L175.285000 98.951500
" />
</g>
<g style="fill:#000000; fill-opacity:0.0; 
stroke:#000000; stroke-width:1.500000; stroke-opacity:1; 
stroke-linecap:round; stroke-linejoin:round;">
<path d="M173.101000 102.743000
L173.101000 103.886000
" />
<path d="M165.114000 104.253000
L167.386000 101.981000
" />
</g>
<g style="fill:#000000; fill-opacity:0.0; 
stroke:#000000; stroke-width:0.750000; stroke-opacity:1; 
stroke-linecap:round; stroke-linejoin:round;">
<path d="M146.202000 108.642000
L146.202000 106.705000
" />
<path d="M146.164000 106.667000
L145.034000 105.537000
" />
<path d="M142.699000 106.667000
L143.829000 105.537000
" />
</g>
<g style="fill:#000000; fill-opacity:0.0; 
stroke:#000000; stroke-width:1.000000; stroke-opacity:1; 
stroke-linecap:round; stroke-linejoin:round;">
<path d="M175.285000 98.951500
L174.533000 98.199500
" />
</g>
<g style="fill:#000000; fill-opacity:0.0; 
stroke:#000000; stroke-width:0.750000; stroke-opacity:1; 
stroke-linecap:round; stroke-linejoin:round;">
<path d="M146.202000 106.705000
L146.164000 106.667000
" />
</g>
<g style="fill:#000000; fill-opacity:0.0; 
stroke:#000000; stroke-width:1.000000; stroke-opacity:1; 
stroke-linecap:round; stroke-linejoin:round;">
<path d="M175.415500 98.199500
L175.577500 98.361500
" />
</g>
<g style="fill:#000000; fill-opacity:0.0; 
stroke:#000000; stroke-width:0.750000; stroke-opacity:1; 
stroke-linecap:round; stroke-linejoin:round;">
<path d="M148.082000 96.520000
L146.558000 96.520000
" />
</g>
<g style="fill:#000000; fill-opacity:0.0; 
stroke:#000000; stroke-width:1.500000; stroke-opacity:1; 
stroke-linecap:round; stroke-linejoin:round;">
<path d="M156.083000 103.632000
L156.083000 104.140000
" />
<path d="M143.891000 102.362000
L143.891000 105.664000
" />
</g>
<g style="fill:#000000; fill-opacity:0.0; 
stroke:#000000; stroke-width:0.750000; stroke-opacity:1; 
stroke-linecap:round; stroke-linejoin:round;">
<path d="M148.082000 97.155000
L148.082000 96.520000
" />
<path d="M146.406000 93.370000
L147.982000 93.370000
" />
</g>
<g style="fill:#000000; fill-opacity:0.0; 
stroke:#000000; stroke-width:1.500000; stroke-opacity:1; 
stroke-linecap:round; stroke-linejoin:round;">
<path d="M139.700000 100.965000
L142.621000 100.965000
" />
</g>
<g style="fill:#000000; fill-opacity:0.0; 
stroke:#000000; stroke-width:0.750000; stroke-opacity:1; 
stroke-linecap:round; stroke-linejoin:round;">
<path d="M141.651500 106.667000
L142.699000 106.667000
" />
</g>
<g style="fill:#000000; fill-opacity:0.0; 
stroke:#000000; stroke-width:1.500000; stroke-opacity:1; 
stroke-linecap:round; stroke-linejoin:round;">
<path d="M173.101000 103.886000
L173.101000 102.997000
" />
</g>
<g style="fill:#000000; fill-opacity:0.0; 
stroke:#000000; stroke-width:0.750000; stroke-opacity:1; 
stroke-linecap:round; stroke-linejoin:round;">
<path d="M145.923000 95.885000
L145.923000 93.853000
" />
</g>
<g style="fill:#000000; fill-opacity:0.0; 
stroke:#000000; stroke-width:1.500000; stroke-opacity:1; 
stroke-linecap:round; stroke-linejoin:round;">
<path d="M167.386000 101.981000
L173.863000 101.981000
" />
</g>
<g style="fill:#000000; fill-opacity:0.0; 
stroke:#000000; stroke-width:0.750000; stroke-opacity:1; 
stroke-linecap:round; stroke-linejoin:round;">
<path d="M141.651500 106.667000
L140.970000 106.667000
" />
</g>
<g style="fill:#000000; fill-opacity:0.0; 
stroke:#000000; stroke-width:1.500000; stroke-opacity:1; 
stroke-linecap:round; stroke-linejoin:round;">
<path d="M145.034000 105.664000
L145.034000 102.489000
" />
<path d="M163.474000 104.253000
L156.704000 104.253000
" />
</g>
<g style="fill:#000000; fill-opacity:0.0; 
stroke:#000000; stroke-width:1.000000; stroke-opacity:1; 
stroke-linecap:round; stroke-linejoin:round;">
<path d="M174.533000 98.199500
L175.415500 98.199500
" />
</g>
<g style="fill:#000000; fill-opacity:0.0; 
stroke:#000000; stroke-width:1.500000; stroke-opacity:1; 
stroke-linecap:round; stroke-linejoin:round;">
<path d="M154.813000 102.362000
L152.781000 102.362000
" />
</g>
<g style="fill:#000000; fill-opacity:0.0; 
stroke:#000000; stroke-width:0.500000; stroke-opacity:1; 
stroke-linecap:round; stroke-linejoin:round;">
<path d="M146.164000 102.857000
L145.034000 103.987000
" />
</g>
<g style="fill:#000000; fill-opacity:0.0; 
stroke:#000000; stroke-width:1.500000; stroke-opacity:1; 
stroke-linecap:round; stroke-linejoin:round;">
<path d="M173.863000 101.981000
L173.101000 102.743000
" />
<path d="M175.285000 98.654000
L175.577500 98.361500
" />
</g>
<g style="fill:#000000; fill-opacity:0.0; 
stroke:#000000; stroke-width:0.750000; stroke-opacity:1; 
stroke-linecap:round; stroke-linejoin:round;">
<path d="M145.923000 93.853000
L146.406000 93.370000
" />
</g>
<g style="fill:#000000; fill-opacity:0.0; 
stroke:#000000; stroke-width:1.500000; stroke-opacity:1; 
stroke-linecap:round; stroke-linejoin:round;">
<path d="M138.010500 100.965000
L139.700000 100.965000
" />
</g>
<g style="fill:#000000; fill-opacity:0.0; 
stroke:#000000; stroke-width:0.750000; stroke-opacity:1; 
stroke-linecap:round; stroke-linejoin:round;">
<path d="M149.225000 98.298000
L149.225000 98.806000
" />
</g>
<g style="fill:#000000; fill-opacity:0.0; 
stroke:#000000; stroke-width:1.500000; stroke-opacity:1; 
stroke-linecap:round; stroke-linejoin:round;">
<path d="M173.863000 101.981000
L175.133000 100.711000
" />
<path d="M142.621000 100.965000
L143.829000 102.173000
" />
</g>
<g style="fill:#000000; fill-opacity:0.0; 
stroke:#000000; stroke-width:0.500000; stroke-opacity:1; 
stroke-linecap:round; stroke-linejoin:round;">
<path d="M147.211500 106.667000
L146.164000 106.667000
" />
</g>
<g style="fill:#000000; fill-opacity:0.0; 
stroke:#000000; stroke-width:1.500000; stroke-opacity:1; 
stroke-linecap:round; stroke-linejoin:round;">
<path d="M143.891000 105.664000
L145.034000 105.664000
" />
<path d="M133.731000 100.965000
L139.700000 100.965000
" />
</g>
<g style="fill:#000000; fill-opacity:0.0; 
stroke:#000000; stroke-width:0.750000; stroke-opacity:1; 
stroke-linecap:round; stroke-linejoin:round;">
<path d="M146.558000 96.520000
L145.923000 95.885000
" />
</g>
<g style="fill:#000000; fill-opacity:0.0; 
stroke:#000000; stroke-width:1.000000; stroke-opacity:1; 
stroke-linecap:round; stroke-linejoin:round;">
<path d="M172.764500 98.199500
L174.533000 98.199500
" />
</g>
<g style="fill:#000000; fill-opacity:0.0; 
stroke:#000000; stroke-width:1.500000; stroke-opacity:1; 
stroke-linecap:round; stroke-linejoin:round;">
<path d="M173.101000 102.997000
L172.212000 102.108000
" />
<path d="M175.285000 100.647500
L175.285000 98.654000
" />
<path d="M133.477000 100.711000
L133.731000 100.965000
" />
</g>
<g style="fill:#000000; fill-opacity:0.0; 
stroke:#000000; stroke-width:1.000000; stroke-opacity:1; 
stroke-linecap:round; stroke-linejoin:round;">
<path d="M152.641000 102.222000
L152.781000 102.362000
" />
<path d="M145.288000 84.836000
L145.637000 84.487000
" />
<path d="M144.272000 90.678000
L143.764000 90.678000
" />
</g>
<g style="fill:#000000; fill-opacity:0.0; 
stroke:#000000; stroke-width:0.750000; stroke-opacity:1; 
stroke-linecap:round; stroke-linejoin:round;">
<path d="M178.410000 99.212000
L178.410000 99.035000
" />
<path d="M145.415000 91.170000
L138.954000 91.170000
" />
</g>
<g style="fill:#000000; fill-opacity:0.0; 
stroke:#000000; stroke-width:1.000000; stroke-opacity:1; 
stroke-linecap:round; stroke-linejoin:round;">
<path d="M148.082000 84.487000
L144.780000 84.487000
" />
</g>
<g style="fill:#000000; fill-opacity:0.0; 
stroke:#000000; stroke-width:1.500000; stroke-opacity:1; 
stroke-linecap:round; stroke-linejoin:round;">
<path d="M157.226000 100.584000
L157.226000 99.060000
" />
</g>
<g style="fill:#000000; fill-opacity:0.0; 
stroke:#000000; stroke-width:0.750000; stroke-opacity:1; 
stroke-linecap:round; stroke-linejoin:round;">
<path d="M178.625500 93.091000
L177.609500 93.091000
" />
</g>
<g style="fill:#000000; fill-opacity:0.0; 
stroke:#000000; stroke-width:1.000000; stroke-opacity:1; 
stroke-linecap:round; stroke-linejoin:round;">
<path d="M152.654000 87.122000
L152.654000 84.614000
" />
<path d="M141.732000 86.614000
L141.097000 86.614000
" />
</g>
<g style="fill:#000000; fill-opacity:0.0; 
stroke:#000000; stroke-width:1.500000; stroke-opacity:1; 
stroke-linecap:round; stroke-linejoin:round;">
<path d="M163.474000 106.553000
L169.926000 106.553000
" />
</g>
<g style="fill:#000000; fill-opacity:0.0; 
stroke:#000000; stroke-width:0.750000; stroke-opacity:1; 
stroke-linecap:round; stroke-linejoin:round;">
<path d="M146.542000 91.170000
L145.288000 89.916000
" />
</g>
<g style="fill:#000000; fill-opacity:0.0; 
stroke:#000000; stroke-width:1.000000; stroke-opacity:1; 
stroke-linecap:round; stroke-linejoin:round;">
<path d="M141.097000 87.630000
L141.097000 90.551000
" />
<path d="M141.097000 90.551000
L140.970000 90.678000
" />
<path d="M152.686000 84.582000
L150.717000 84.582000
" />
</g>
<g style="fill:#000000; fill-opacity:0.0; 
stroke:#000000; stroke-width:0.750000; stroke-opacity:1; 
stroke-linecap:round; stroke-linejoin:round;">
<path d="M179.514500 98.107500
L179.514500 93.980000
" />
</g>
<g style="fill:#000000; fill-opacity:0.0; 
stroke:#000000; stroke-width:1.000000; stroke-opacity:1; 
stroke-linecap:round; stroke-linejoin:round;">
<path d="M142.240000 87.884000
L142.240000 90.678000
" />
</g>
<g style="fill:#000000; fill-opacity:0.0; 
stroke:#000000; stroke-width:0.750000; stroke-opacity:1; 
stroke-linecap:round; stroke-linejoin:round;">
<path d="M138.811000 95.631000
L138.811000 99.060000
" />
<path d="M138.954000 91.170000
L138.811000 91.313000
" />
</g>
<g style="fill:#000000; fill-opacity:0.0; 
stroke:#000000; stroke-width:1.000000; stroke-opacity:1; 
stroke-linecap:round; stroke-linejoin:round;">
<path d="M143.319500 85.407500
L141.097000 87.630000
" />
<path d="M144.272000 86.614000
L144.272000 90.678000
" />
<path d="M141.097000 86.011000
L141.700500 85.407500
" />
<path d="M141.097000 86.614000
L141.097000 87.630000
" />
<path d="M144.780000 99.441000
L145.923000 100.584000
" />
<path d="M142.494000 85.407500
L142.494000 85.852000
" />
<path d="M142.494000 85.407500
L143.319500 85.407500
" />
<path d="M143.891000 86.233000
L143.764000 86.360000
" />
<path d="M138.811000 91.313000
L138.811000 95.631000
" />
</g>
<g style="fill:#000000; fill-opacity:0.0; 
stroke:#000000; stroke-width:0.750000; stroke-opacity:1; 
stroke-linecap:round; stroke-linejoin:round;">
<path d="M145.288000 89.916000
L145.288000 84.836000
" />
</g>
<g style="fill:#000000; fill-opacity:0.0; 
stroke:#000000; stroke-width:1.000000; stroke-opacity:1; 
stroke-linecap:round; stroke-linejoin:round;">
<path d="M152.654000 84.614000
L152.686000 84.582000
" />
<path d="M144.653000 85.471000
L143.891000 86.233000
" />
<path d="M141.478000 90.678000
L140.970000 90.678000
" />
<path d="M150.622000 84.487000
L148.082000 84.487000
" />
<path d="M141.510000 84.487000
L141.097000 84.074000
" />
<path d="M141.700500 85.407500
L142.494000 85.407500
" />
<path d="M144.780000 85.598000
L145.193000 85.598000
" />
<path d="M142.113000 86.614000
L141.732000 86.614000
" />
</g>
<g style="fill:#000000; fill-opacity:0.0; 
stroke:#000000; stroke-width:1.500000; stroke-opacity:1; 
stroke-linecap:round; stroke-linejoin:round;">
<path d="M158.496000 101.854000
L161.036000 101.854000
" />
<path d="M156.972000 98.806000
L157.226000 99.060000
" />
</g>
<g style="fill:#000000; fill-opacity:0.0; 
stroke:#000000; stroke-width:1.000000; stroke-opacity:1; 
stroke-linecap:round; stroke-linejoin:round;">
<path d="M141.097000 86.614000
L141.097000 86.011000
" />
<path d="M143.764000 90.678000
L142.748000 90.678000
" />
<path d="M142.240000 87.884000
L141.478000 88.646000
" />
<path d="M145.193000 85.598000
L146.304000 84.487000
" />
</g>
<g style="fill:#000000; fill-opacity:0.0; 
stroke:#000000; stroke-width:1.500000; stroke-opacity:1; 
stroke-linecap:round; stroke-linejoin:round;">
<path d="M157.226000 99.060000
L157.226000 98.538000
" />
</g>
<g style="fill:#000000; fill-opacity:0.0; 
stroke:#000000; stroke-width:1.000000; stroke-opacity:1; 
stroke-linecap:round; stroke-linejoin:round;">
<path d="M143.764000 86.360000
L143.764000 90.678000
" />
</g>
<g style="fill:#000000; fill-opacity:0.0; 
stroke:#000000; stroke-width:0.750000; stroke-opacity:1; 
stroke-linecap:round; stroke-linejoin:round;">
<path d="M147.982000 91.170000
L146.542000 91.170000
" />
</g>
<g style="fill:#000000; fill-opacity:0.0; 
stroke:#000000; stroke-width:1.000000; stroke-opacity:1; 
stroke-linecap:round; stroke-linejoin:round;">
<path d="M143.827500 84.899500
L142.113000 86.614000
" />
<path d="M141.097000 86.011000
L142.621000 84.487000
" />
</g>
<g style="fill:#000000; fill-opacity:0.0; 
stroke:#000000; stroke-width:0.750000; stroke-opacity:1; 
stroke-linecap:round; stroke-linejoin:round;">
<path d="M178.410000 99.212000
L179.514500 98.107500
" />
</g>
<g style="fill:#000000; fill-opacity:0.0; 
stroke:#000000; stroke-width:1.000000; stroke-opacity:1; 
stroke-linecap:round; stroke-linejoin:round;">
<path d="M145.923000 100.584000
L157.226000 100.584000
" />
</g>
<g style="fill:#000000; fill-opacity:0.0; 
stroke:#000000; stroke-width:1.500000; stroke-opacity:1; 
stroke-linecap:round; stroke-linejoin:round;">
<path d="M161.036000 106.299000
L161.417000 106.553000
" />
</g>
<g style="fill:#000000; fill-opacity:0.0; 
stroke:#000000; stroke-width:1.000000; stroke-opacity:1; 
stroke-linecap:round; stroke-linejoin:round;">
<path d="M174.752000 106.553000
L178.308000 102.997000
" />
</g>
<g style="fill:#000000; fill-opacity:0.0; 
stroke:#000000; stroke-width:0.750000; stroke-opacity:1; 
stroke-linecap:round; stroke-linejoin:round;">
<path d="M145.415000 91.170000
L145.415000 90.043000
" />
</g>
<g style="fill:#000000; fill-opacity:0.0; 
stroke:#000000; stroke-width:1.000000; stroke-opacity:1; 
stroke-linecap:round; stroke-linejoin:round;">
<path d="M142.240000 90.678000
L141.478000 90.678000
" />
<path d="M141.986000 84.487000
L141.510000 84.487000
" />
<path d="M142.494000 85.852000
L141.732000 86.614000
" />
<path d="M143.002000 90.424000
L142.748000 90.678000
" />
<path d="M143.827500 84.899500
L143.319500 85.407500
" />
</g>
<g style="fill:#000000; fill-opacity:0.0; 
stroke:#000000; stroke-width:1.500000; stroke-opacity:1; 
stroke-linecap:round; stroke-linejoin:round;">
<path d="M157.226000 100.584000
L158.496000 101.854000
" />
</g>
<g style="fill:#000000; fill-opacity:0.0; 
stroke:#000000; stroke-width:1.000000; stroke-opacity:1; 
stroke-linecap:round; stroke-linejoin:round;">
<path d="M143.002000 87.122000
L142.240000 87.884000
" />
<path d="M146.304000 84.487000
L145.637000 84.487000
" />
<path d="M152.654000 84.550000
L152.686000 84.582000
" />
<path d="M150.717000 84.582000
L150.622000 84.487000
" />
<path d="M145.288000 84.836000
L144.653000 85.471000
" />
<path d="M143.891000 86.233000
L143.002000 87.122000
" />
<path d="M169.774000 106.553000
L174.752000 106.553000
" />
<path d="M144.780000 90.678000
L144.272000 90.678000
" />
<path d="M143.891000 86.233000
L144.272000 86.614000
" />
<path d="M148.082000 84.487000
L146.304000 84.487000
" />
<path d="M141.097000 84.074000
L141.097000 86.614000
" />
<path d="M144.240000 84.487000
L143.827500 84.899500
" />
</g>
<g style="fill:#000000; fill-opacity:0.0; 
stroke:#000000; stroke-width:0.750000; stroke-opacity:1; 
stroke-linecap:round; stroke-linejoin:round;">
<path d="M179.514500 93.980000
L178.625500 93.091000
" />
</g>
<g style="fill:#000000; fill-opacity:0.0; 
stroke:#000000; stroke-width:1.000000; stroke-opacity:1; 
stroke-linecap:round; stroke-linejoin:round;">
<path d="M144.780000 84.487000
L142.621000 84.487000
" />
</g>
<g style="fill:#000000; fill-opacity:0.0; 
stroke:#000000; stroke-width:1.500000; stroke-opacity:1; 
stroke-linecap:round; stroke-linejoin:round;">
<path d="M154.686000 98.806000
L156.972000 98.806000
" />
</g>
<g style="fill:#000000; fill-opacity:0.0; 
stroke:#000000; stroke-width:1.000000; stroke-opacity:1; 
stroke-linecap:round; stroke-linejoin:round;">
<path d="M144.653000 85.471000
L144.780000 85.598000
" />
<path d="M144.399000 99.060000
L138.811000 99.060000
" />
</g>
<g style="fill:#000000; fill-opacity:0.0; 
stroke:#000000; stroke-width:0.750000; stroke-opacity:1; 
stroke-linecap:round; stroke-linejoin:round;">
<path d="M146.542000 91.170000
L145.415000 91.170000
" />
<path d="M145.415000 90.043000
L145.288000 89.916000
" />
<path d="M178.410000 99.035000
L177.736500 98.361500
" />
</g>
<g style="fill:#000000; fill-opacity:0.0; 
stroke:#000000; stroke-width:1.000000; stroke-opacity:1; 
stroke-linecap:round; stroke-linejoin:round;">
<path d="M143.002000 87.122000
L143.002000 90.424000
" />
<path d="M140.716000 89.408000
L140.970000 89.662000
" />
<path d="M141.478000 88.646000
L140.716000 89.408000
" />
<path d="M144.780000 99.441000
L144.399000 99.060000
" />
<path d="M143.700500 84.899500
L143.827500 84.899500
" />
<path d="M140.716000 89.408000
L138.811000 91.313000
" />
<path d="M142.748000 90.678000
L142.240000 90.678000
" />
<path d="M144.780000 84.487000
L144.240000 84.487000
" />
<path d="M141.478000 88.646000
L141.478000 90.678000
" />
<path d="M140.970000 89.662000
L140.970000 90.678000
" />
<path d="M142.621000 84.487000
L141.986000 84.487000
" />
<path d="M178.308000 102.997000
L178.308000 100.584000
" />
<path d="M144.780000 85.598000
L144.780000 90.678000
" />
</g>
<g style="fill:#000000; fill-opacity:0.0; 
stroke:#000000; stroke-width:1.500000; stroke-opacity:1; 
stroke-linecap:round; stroke-linejoin:round;">
<path d="M161.417000 106.553000
L163.474000 106.553000
" />
</g>
<g style="fill:#000000; fill-opacity:0.0; 
stroke:#000000; stroke-width:1.000000; stroke-opacity:1; 
stroke-linecap:round; stroke-linejoin:round;">
<path d="M178.410000 100.647500
L178.410000 99.212000
" />
</g>
<g style="fill:#000000; fill-opacity:0.0; 
stroke:#000000; stroke-width:1.500000; stroke-opacity:1; 
stroke-linecap:round; stroke-linejoin:round;">
<path d="M157.226000 98.538000
L157.564500 98.199500
" />
</g>
<g style="fill:#000000; fill-opacity:0.0; 
stroke:#000000; stroke-width:1.000000; stroke-opacity:1; 
stroke-linecap:round; stroke-linejoin:round;">
<path d="M156.493500 90.199500
L155.956000 89.662000
" />
<path d="M155.956000 89.662000
L154.654000 89.662000
" />
<path d="M157.564500 90.199500
L156.493500 90.199500
" />
<path d="M155.702000 91.948000
L154.654000 91.948000
" />
<path d="M155.953500 92.199500
L155.702000 91.948000
" />
<path d="M157.564500 92.199500
L155.953500 92.199500
" />
<path d="M157.564500 96.199500
L154.974500 96.199500
" />
<path d="M154.974500 96.199500
L154.654000 96.520000
" />
<path d="M157.564500 94.199500
L154.688500 94.199500
" />
<path d="M154.688500 94.199500
L154.654000 94.234000
" />
<path d="M172.764500 96.199500
L175.415500 96.199500
" />
<path d="M175.415500 96.199500
L175.577500 96.361500
" />
<path d="M154.686000 84.582000
L154.686000 82.042000
" />
<path d="M157.564500 84.199500
L155.068500 84.199500
" />
<path d="M154.686000 82.042000
L154.305000 81.788000
" />
<path d="M155.068500 84.199500
L154.686000 84.582000
" />
<path d="M157.564500 88.199500
L155.731500 88.199500
" />
<path d="M155.731500 88.199500
L154.654000 87.122000
" />
<path d="M177.736500 95.504000
L176.911000 94.678500
" />
<path d="M172.764500 94.199500
L174.146000 94.199500
" />
<path d="M174.625000 94.678500
L176.911000 94.678500
" />
<path d="M174.146000 94.199500
L174.625000 94.678500
" />
<path d="M177.736500 96.361500
L177.736500 95.504000
" />
<path d="M172.764500 92.199500
L174.718000 92.199500
" />
<path d="M171.066500 92.199500
L170.307000 91.440000
" />
<path d="M172.764500 92.199500
L171.066500 92.199500
" />
<path d="M174.718000 92.199500
L175.609500 93.091000
" />
<path d="M170.307000 91.440000
L170.307000 82.550000
" />
<path d="M171.450000 81.407000
L172.593000 81.407000
" />
<path d="M172.593000 81.407000
L176.403000 77.597000
" />
<path d="M170.307000 82.550000
L171.450000 81.407000
" />
<path d="M174.976000 86.199500
L172.764500 86.199500
" />
<path d="M175.895000 85.280500
L174.976000 86.199500
" />
<path d="M172.798000 86.233000
L172.764500 86.199500
" />
<path d="M177.355500 85.280500
L175.895000 85.280500
" />
<path d="M178.943000 83.693000
L177.355500 85.280500
" />
</g>
<g style="fill:#000000; fill-opacity:0.0; 
stroke:#000000; stroke-width:0.750000; stroke-opacity:1; 
stroke-linecap:round; stroke-linejoin:round;">
<path d="M149.432000 87.870000
L147.982000 87.870000
" />
<path d="M150.654000 86.648000
L149.432000 87.870000
" />
</g>
<g style="fill:#000000; fill-opacity:0.0; 
stroke:#000000; stroke-width:1.500000; stroke-opacity:1; 
stroke-linecap:round; stroke-linejoin:round;">
<path d="M171.704000 109.982000
L164.592000 109.982000
" />
</g>
<g style="fill:#000000; fill-opacity:0.0; 
stroke:#000000; stroke-width:1.000000; stroke-opacity:1; 
stroke-linecap:round; stroke-linejoin:round;">
<path d="M153.400000 105.808000
L153.544000 105.664000
" />
</g>
<g style="fill:#000000; fill-opacity:0.0; 
stroke:#000000; stroke-width:1.500000; stroke-opacity:1; 
stroke-linecap:round; stroke-linejoin:round;">
<path d="M155.956000 107.988500
L153.631500 105.664000
" />
<path d="M160.542000 108.853000
L163.474000 108.853000
" />
<path d="M155.575000 108.077000
L159.766000 108.077000
" />
<path d="M154.891000 108.966000
L154.051000 108.966000
" />
<path d="M154.559000 108.966000
L154.559000 107.011000
" />
</g>
<g style="fill:#000000; fill-opacity:0.0; 
stroke:#000000; stroke-width:1.000000; stroke-opacity:1; 
stroke-linecap:round; stroke-linejoin:round;">
<path d="M157.059500 107.988500
L155.447000 107.988500
" />
</g>
<g style="fill:#000000; fill-opacity:0.0; 
stroke:#000000; stroke-width:1.500000; stroke-opacity:1; 
stroke-linecap:round; stroke-linejoin:round;">
<path d="M154.051000 106.171000
L153.544000 105.664000
" />
</g>
<g style="fill:#000000; fill-opacity:0.0; 
stroke:#000000; stroke-width:1.000000; stroke-opacity:1; 
stroke-linecap:round; stroke-linejoin:round;">
<path d="M153.400000 108.966000
L153.400000 105.808000
" />
</g>
<g style="fill:#000000; fill-opacity:0.0; 
stroke:#000000; stroke-width:1.500000; stroke-opacity:1; 
stroke-linecap:round; stroke-linejoin:round;">
<path d="M154.051000 108.966000
L153.400000 108.966000
" />
<path d="M173.228000 109.220000
L172.466000 109.220000
" />
<path d="M159.766000 108.077000
L160.542000 108.853000
" />
<path d="M155.956000 107.988500
L154.978500 108.966000
" />
<path d="M154.891000 107.011000
L153.544000 105.664000
" />
<path d="M172.466000 109.220000
L171.704000 109.982000
" />
<path d="M154.051000 108.966000
L154.051000 106.171000
" />
<path d="M164.592000 109.982000
L163.449000 108.839000
" />
</g>
<g style="fill:#000000; fill-opacity:0.0; 
stroke:#000000; stroke-width:0.750000; stroke-opacity:1; 
stroke-linecap:round; stroke-linejoin:round;">
<path d="M151.200000 88.970000
L147.982000 88.970000
" />
<path d="M151.892000 89.662000
L151.200000 88.970000
" />
<path d="M152.654000 89.662000
L151.892000 89.662000
" />
</g>
<g style="fill:#000000; fill-opacity:0.0; 
stroke:#000000; stroke-width:1.000000; stroke-opacity:1; 
stroke-linecap:round; stroke-linejoin:round;">
<path d="M176.432500 90.199500
L177.038000 90.805000
" />
<path d="M172.764500 90.199500
L176.432500 90.199500
" />
<path d="M175.706500 88.199500
L176.657000 87.249000
" />
<path d="M172.764500 88.199500
L175.706500 88.199500
" />
<path d="M176.657000 87.249000
L179.133500 87.249000
" />
<path d="M172.766500 88.201500
L172.764500 88.199500
" />
</g>
<g style="fill:#000000; fill-opacity:0.0; 
stroke:#000000; stroke-width:0.750000; stroke-opacity:1; 
stroke-linecap:round; stroke-linejoin:round;">
<path d="M150.622000 95.123000
L152.019000 96.520000
" />
<path d="M152.019000 96.520000
L152.654000 96.520000
" />
<path d="M150.622000 90.678000
L150.014000 90.070000
" />
<path d="M150.014000 90.070000
L147.982000 90.070000
" />
<path d="M151.638000 91.948000
L151.316000 92.270000
" />
<path d="M151.316000 92.270000
L147.982000 92.270000
" />
<path d="M152.654000 91.948000
L151.638000 91.948000
" />
<path d="M149.243000 94.470000
L147.982000 94.470000
" />
<path d="M152.654000 94.234000
L152.019000 93.599000
" />
<path d="M152.019000 93.599000
L150.114000 93.599000
" />
<path d="M150.114000 93.599000
L149.243000 94.470000
" />
</g>
<g style="fill:#000000; fill-opacity:0.0; 
stroke:#000000; stroke-width:0.500000; stroke-opacity:1; 
stroke-linecap:round; stroke-linejoin:round;">
<path d="M152.686000 98.806000
L152.273000 98.806000
" />
<path d="M149.037000 95.570000
L147.982000 95.570000
" />
<path d="M152.273000 98.806000
L149.037000 95.570000
" />
</g>
<g style="fill:#000000; fill-opacity:0.0; 
stroke:#000000; stroke-width:0.750000; stroke-opacity:1; 
stroke-linecap:round; stroke-linejoin:round;">
<path d="M152.686000 98.806000
L152.686000 99.282000
" />
<path d="M148.916500 104.127000
L150.932000 106.142500
" />
<path d="M150.932000 106.142500
L150.932000 107.118000
" />
<path d="M147.211500 104.127000
L148.916500 104.127000
" />
<path d="M144.202000 109.544000
L144.116500 109.629500
" />
<path d="M144.202000 108.642000
L144.202000 109.544000
" />
<path d="M139.757000 105.975000
L140.335000 105.397000
" />
<path d="M143.129000 108.642000
L141.027000 108.642000
" />
<path d="M141.027000 108.642000
L139.757000 107.372000
" />
<path d="M139.757000 107.372000
L139.757000 105.975000
" />
<path d="M144.234000 108.674000
L144.202000 108.642000
" />
</g>
<g style="fill:#000000; fill-opacity:0.0; 
stroke:#000000; stroke-width:1.000000; stroke-opacity:1; 
stroke-linecap:round; stroke-linejoin:round;">
<path d="M150.257000 110.109000
L151.400000 108.966000
" />
<path d="M144.202000 109.544000
L144.767000 110.109000
" />
</g>
<g style="fill:#000000; fill-opacity:0.0; 
stroke:#000000; stroke-width:0.750000; stroke-opacity:1; 
stroke-linecap:round; stroke-linejoin:round;">
<path d="M140.335000 105.397000
L141.651500 105.397000
" />
</g>
<g style="fill:#000000; fill-opacity:0.0; 
stroke:#000000; stroke-width:1.000000; stroke-opacity:1; 
stroke-linecap:round; stroke-linejoin:round;">
<path d="M144.767000 110.109000
L150.257000 110.109000
" />
</g>
<g style="fill:#000000; fill-opacity:0.0; 
stroke:#000000; stroke-width:0.750000; stroke-opacity:1; 
stroke-linecap:round; stroke-linejoin:round;">
<path d="M144.116500 109.629500
L143.129000 108.642000
" />
<path d="M144.202000 108.642000
L143.129000 108.642000
" />
</g>
<g style="fill:#000000; fill-opacity:0.0; 
stroke:#000000; stroke-width:1.500000; stroke-opacity:1; 
stroke-linecap:round; stroke-linejoin:round;">
<path d="M139.630000 103.575000
L138.811000 104.394000
" />
<path d="M139.630000 103.562000
L141.651500 103.562000
" />
</g>
<g style="fill:#000000; fill-opacity:0.0; 
stroke:#000000; stroke-width:0.750000; stroke-opacity:1; 
stroke-linecap:round; stroke-linejoin:round;">
<path d="M149.028000 107.499000
L148.139000 108.388000
" />
</g>
<g style="fill:#000000; fill-opacity:0.0; 
stroke:#000000; stroke-width:1.500000; stroke-opacity:1; 
stroke-linecap:round; stroke-linejoin:round;">
<path d="M133.477000 104.394000
L137.325500 104.394000
" />
</g>
<g style="fill:#000000; fill-opacity:0.0; 
stroke:#000000; stroke-width:0.750000; stroke-opacity:1; 
stroke-linecap:round; stroke-linejoin:round;">
<path d="M148.012000 108.515000
L148.139000 108.388000
" />
<path d="M141.651500 103.562000
L141.651500 102.857000
" />
<path d="M148.012000 108.388000
L148.012000 108.515000
" />
<path d="M149.028000 105.975000
L149.028000 107.499000
" />
<path d="M148.450000 105.397000
L149.028000 105.975000
" />
<path d="M147.211500 105.397000
L148.450000 105.397000
" />
<path d="M148.139000 108.388000
L148.012000 108.388000
" />
<path d="M141.651500 104.127000
L141.651500 103.562000
" />
</g>
<g style="fill:#000000; fill-opacity:0.0; 
stroke:#000000; stroke-width:1.500000; stroke-opacity:1; 
stroke-linecap:round; stroke-linejoin:round;">
<path d="M138.811000 104.394000
L135.763000 104.394000
" />
<path d="M139.630000 103.562000
L139.630000 103.575000
" />
</g>
<g >
</g>
</g> 
</svg>
